<?xml version="1.0" standalone="no"?>
<!DOCTYPE svg PUBLIC "-//W3C//DTD SVG 1.1//EN" "http://www.w3.org/Graphics/SVG/1.1/DTD/svg11.dtd" >
<svg xmlns="http://www.w3.org/2000/svg">
<metadata>
<json>
{
	"fontFamily": "projectY",
	"majorVersion": 1,
	"minorVersion": 0,
	"version": "Version 1.0",
	"fontId": "projectY",
	"psName": "projectY",
	"subFamily": "Regular",
	"fullName": "projectY",
	"description": "Font generated by IcoMoon."
}
</json>
</metadata>
<defs>
<font id="projectY" horiz-adv-x="1024">
<font-face units-per-em="1024" ascent="960" descent="-64" />
<missing-glyph horiz-adv-x="1024" />
<glyph unicode="&#x20;" d="" horiz-adv-x="512" />
<glyph unicode="&#xe600;" d="M669.143 778.857l-303.429-303.429 303.429-303.429q10.857-10.857 10.857-25.714t-10.857-25.714l-94.857-94.857q-10.857-10.857-25.714-10.857t-25.714 10.857l-424 424q-10.857 10.857-10.857 25.714t10.857 25.714l424 424q10.857 10.857 25.714 10.857t25.714-10.857l94.857-94.857q10.857-10.857 10.857-25.714t-10.857-25.714z" horiz-adv-x="731" data-tags="chevron-left" />
<glyph unicode="&#xe601;" d="M632.571 449.714l-424-424q-10.857-10.857-25.714-10.857t-25.714 10.857l-94.857 94.857q-10.857 10.857-10.857 25.714t10.857 25.714l303.429 303.429-303.429 303.429q-10.857 10.857-10.857 25.714t10.857 25.714l94.857 94.857q10.857 10.857 25.714 10.857t25.714-10.857l424-424q10.857-10.857 10.857-25.714t-10.857-25.714z" horiz-adv-x="731" data-tags="chevron-right" />
<glyph unicode="&#xe602;" d="M694.857 402.286v73.143q0 14.857-10.857 25.714t-25.714 10.857h-146.286v146.286q0 14.857-10.857 25.714t-25.714 10.857h-73.143q-14.857 0-25.714-10.857t-10.857-25.714v-146.286h-146.286q-14.857 0-25.714-10.857t-10.857-25.714v-73.143q0-14.857 10.857-25.714t25.714-10.857h146.286v-146.286q0-14.857 10.857-25.714t25.714-10.857h73.143q14.857 0 25.714 10.857t10.857 25.714v146.286h146.286q14.857 0 25.714 10.857t10.857 25.714zM877.714 438.857q0-119.429-58.857-220.286t-159.714-159.714-220.286-58.857-220.286 58.857-159.714 159.714-58.857 220.286 58.857 220.286 159.714 159.714 220.286 58.857 220.286-58.857 159.714-159.714 58.857-220.286z" data-tags="plus-circle" />
<glyph unicode="&#xe603;" d="M694.857 402.286v73.143q0 14.857-10.857 25.714t-25.714 10.857h-438.857q-14.857 0-25.714-10.857t-10.857-25.714v-73.143q0-14.857 10.857-25.714t25.714-10.857h438.857q14.857 0 25.714 10.857t10.857 25.714zM877.714 438.857q0-119.429-58.857-220.286t-159.714-159.714-220.286-58.857-220.286 58.857-159.714 159.714-58.857 220.286 58.857 220.286 159.714 159.714 220.286 58.857 220.286-58.857 159.714-159.714 58.857-220.286z" data-tags="minus-circle" />
<glyph unicode="&#xe604;" d="M656.571 309.714q0 14.857-10.857 25.714l-103.429 103.429 103.429 103.429q10.857 10.857 10.857 25.714 0 15.429-10.857 26.286l-51.429 51.429q-10.857 10.857-26.286 10.857-14.857 0-25.714-10.857l-103.429-103.429-103.429 103.429q-10.857 10.857-25.714 10.857-15.429 0-26.286-10.857l-51.429-51.429q-10.857-10.857-10.857-26.286 0-14.857 10.857-25.714l103.429-103.429-103.429-103.429q-10.857-10.857-10.857-25.714 0-15.429 10.857-26.286l51.429-51.429q10.857-10.857 26.286-10.857 14.857 0 25.714 10.857l103.429 103.429 103.429-103.429q10.857-10.857 25.714-10.857 15.429 0 26.286 10.857l51.429 51.429q10.857 10.857 10.857 26.286zM877.714 438.857q0-119.429-58.857-220.286t-159.714-159.714-220.286-58.857-220.286 58.857-159.714 159.714-58.857 220.286 58.857 220.286 159.714 159.714 220.286 58.857 220.286-58.857 159.714-159.714 58.857-220.286z" data-tags="times-circle" />
<glyph unicode="&#xe605;" d="M733.714 531.428q0 16-10.286 26.286l-52 51.429q-10.857 10.857-25.714 10.857t-25.714-10.857l-233.143-232.571-129.143 129.143q-10.857 10.857-25.714 10.857t-25.714-10.857l-52-51.429q-10.286-10.286-10.286-26.286 0-15.429 10.286-25.714l206.857-206.857q10.857-10.857 25.714-10.857 15.429 0 26.286 10.857l310.286 310.286q10.286 10.286 10.286 25.714zM877.714 438.857q0-119.429-58.857-220.286t-159.714-159.714-220.286-58.857-220.286 58.857-159.714 159.714-58.857 220.286 58.857 220.286 159.714 159.714 220.286 58.857 220.286-58.857 159.714-159.714 58.857-220.286z" data-tags="check-circle" />
<glyph unicode="&#xe606;" d="M73.143 0h164.571v164.571h-164.571v-164.571zM274.286 0h182.857v164.571h-182.857v-164.571zM73.143 201.143h164.571v182.857h-164.571v-182.857zM274.286 201.143h182.857v182.857h-182.857v-182.857zM73.143 420.571h164.571v164.571h-164.571v-164.571zM493.714 0h182.857v164.571h-182.857v-164.571zM274.286 420.571h182.857v164.571h-182.857v-164.571zM713.143 0h164.571v164.571h-164.571v-164.571zM493.714 201.143h182.857v182.857h-182.857v-182.857zM292.571 694.857v164.571q0 7.429-5.429 12.857t-12.857 5.429h-36.571q-7.429 0-12.857-5.429t-5.429-12.857v-164.571q0-7.429 5.429-12.857t12.857-5.429h36.571q7.429 0 12.857 5.429t5.429 12.857zM713.143 201.143h164.571v182.857h-164.571v-182.857zM493.714 420.571h182.857v164.571h-182.857v-164.571zM713.143 420.571h164.571v164.571h-164.571v-164.571zM731.429 694.857v164.571q0 7.429-5.429 12.857t-12.857 5.429h-36.571q-7.429 0-12.857-5.429t-5.429-12.857v-164.571q0-7.429 5.429-12.857t12.857-5.429h36.571q7.429 0 12.857 5.429t5.429 12.857zM950.857 731.428v-731.429q0-29.714-21.714-51.429t-51.429-21.714h-804.571q-29.714 0-51.429 21.714t-21.714 51.429v731.429q0 29.714 21.714 51.429t51.429 21.714h73.143v54.857q0 37.714 26.857 64.571t64.571 26.857h36.571q37.714 0 64.571-26.857t26.857-64.571v-54.857h219.429v54.857q0 37.714 26.857 64.571t64.571 26.857h36.571q37.714 0 64.571-26.857t26.857-64.571v-54.857h73.143q29.714 0 51.429-21.714t21.714-51.429z" horiz-adv-x="951" data-tags="calendar" />
<glyph unicode="&#xe607;" d="M961.714 190.286l-94.857-94.286q-10.857-10.857-25.714-10.857t-25.714 10.857l-303.429 303.429-303.429-303.429q-10.857-10.857-25.714-10.857t-25.714 10.857l-94.857 94.286q-10.857 10.857-10.857 26t10.857 26l424 423.429q10.857 10.857 25.714 10.857t25.714-10.857l424-423.429q10.857-10.857 10.857-26t-10.857-26z" data-tags="chevron-up" />
<glyph unicode="&#xe608;" d="M961.714 489.143l-424-423.429q-10.857-10.857-25.714-10.857t-25.714 10.857l-424 423.429q-10.857 10.857-10.857 26t10.857 26l94.857 94.286q10.857 10.857 25.714 10.857t25.714-10.857l303.429-303.429 303.429 303.429q10.857 10.857 25.714 10.857t25.714-10.857l94.857-94.286q10.857-10.857 10.857-26t-10.857-26z" data-tags="chevron-down" />
<glyph unicode="&#xe609;" d="M731.429 602.286q-32-14.286-69.143-19.429 38.857 22.857 53.143 66.857-37.143-21.714-76.571-29.143-34.857 37.714-87.429 37.714-49.714 0-84.857-35.143t-35.143-84.857q0-16.571 2.857-27.429-73.714 4-138.286 37.143t-109.714 88.571q-16.571-28.571-16.571-60.571 0-65.143 52-100-26.857 0.571-57.143 14.857v-1.143q0-42.857 28.571-76.286t70.286-41.429q-16.571-4.571-29.143-4.571-7.429 0-22.286 2.286 12-36 42.571-59.429t69.429-24q-66.286-51.429-149.143-51.429-14.857 0-28.571 1.714 84.571-53.714 184-53.714 64 0 120 20.286t96 54.286 68.857 78.286 42.857 92.571 14 96.286q0 10.286-0.571 15.429 36 25.714 60 62.286zM877.714 713.143v-548.571q0-68-48.286-116.286t-116.286-48.286h-548.571q-68 0-116.286 48.286t-48.286 116.286v548.571q0 68 48.286 116.286t116.286 48.286h548.571q68 0 116.286-48.286t48.286-116.286z" data-tags="twitter-square" />
<glyph unicode="&#xe60a;" d="M713.143 877.714q68 0 116.286-48.286t48.286-116.286v-548.571q0-68-48.286-116.286t-116.286-48.286h-107.429v340h113.714l17.143 132.571h-130.857v84.571q0 32 13.429 48t52.286 16l69.714 0.571v118.286q-36 5.143-101.714 5.143-77.714 0-124.286-45.714t-46.571-129.143v-97.714h-114.286v-132.571h114.286v-340h-304q-68 0-116.286 48.286t-48.286 116.286v548.571q0 68 48.286 116.286t116.286 48.286h548.571z" data-tags="facebook-square" />
<glyph unicode="&#xe60b;" d="M135.429 142.857h132v396.571h-132v-396.571zM276 661.714q-0.571 29.714-20.571 49.143t-53.143 19.429-54-19.429-20.857-49.143q0-29.143 20.286-48.857t52.857-19.714h0.571q33.714 0 54.286 19.714t20.571 48.857zM610.286 142.857h132v227.429q0 88-41.714 133.143t-110.286 45.143q-77.714 0-119.429-66.857h1.143v57.714h-132q1.714-37.714 0-396.571h132v221.714q0 21.714 4 32 8.571 20 25.714 34t42.286 14q66.286 0 66.286-89.714v-212zM877.714 713.143v-548.571q0-68-48.286-116.286t-116.286-48.286h-548.571q-68 0-116.286 48.286t-48.286 116.286v548.571q0 68 48.286 116.286t116.286 48.286h548.571q68 0 116.286-48.286t48.286-116.286z" data-tags="linkedin-square" />
<glyph unicode="&#xe60c;" d="M804.571 242.286q0-15.429-5.714-40.286t-12-39.143q-12-28.571-69.714-60.571-53.714-29.143-106.286-29.143-15.429 0-30 2t-32.857 7.143-27.143 8.286-31.714 11.714-28 10.286q-56 20-100 47.429-73.143 45.143-151.143 123.143t-123.143 151.143q-27.429 44-47.429 100-1.714 5.143-10.286 28t-11.714 31.714-8.286 27.143-7.143 32.857-2 30q0 52.571 29.143 106.286 32 57.714 60.571 69.714 14.286 6.286 39.143 12t40.286 5.714q8 0 12-1.714 10.286-3.429 30.286-43.429 6.286-10.857 17.143-30.857t20-36.286 17.714-30.571q1.714-2.286 10-14.286t12.286-20.286 4-16.286q0-11.429-16.286-28.571t-35.429-31.429-35.429-30.286-16.286-26.286q0-5.143 2.857-12.857t4.857-11.714 8-13.714 6.571-10.857q43.429-78.286 99.429-134.286t134.286-99.429q1.143-0.571 10.857-6.571t13.714-8 11.714-4.857 12.857-2.857q10.286 0 26.286 16.286t30.286 35.429 31.429 35.429 28.571 16.286q8 0 16.286-4t20.286-12.286 14.286-10q14.286-8.571 30.571-17.714t36.286-20 30.857-17.143q40-20 43.429-30.286 1.714-4 1.714-12z" horiz-adv-x="805" data-tags="phone" />
<glyph unicode="&#xe60d;" d="M731.429 269.143q0 6.286-1.143 9.143-1.714 4.571-22 16.857t-50.571 28.286l-30.286 16.571q-2.857 1.714-10.857 7.429t-14.286 8.571-12 2.857q-10.286 0-26.857-18.571t-32.571-37.429-25.143-18.857q-4 0-9.429 2t-8.857 3.714-9.714 5.429-8 4.857q-56.571 31.429-97.429 72.286t-72.286 97.429q-1.143 1.714-4.857 8t-5.429 9.714-3.714 8.857-2 9.429q0 7.429 11.714 19.143t25.714 22 25.714 22.571 11.714 20.857q0 5.714-2.857 12t-8.571 14.286-7.429 10.857q-1.714 3.429-8.571 16.286t-14.286 26-15.143 27.143-14.286 23.143-9.429 10.286-9.143 1.143q-27.429 0-57.714-12.571-26.286-12-45.714-54t-19.429-74.571q0-9.143 1.429-19.429t2.857-17.429 5.143-18.857 5.714-16.857 7.143-18.857 6.286-17.143q34.286-93.714 123.714-183.143t183.143-123.714q3.429-1.143 17.143-6.286t18.857-7.143 16.857-5.714 18.857-5.143 17.429-2.857 19.429-1.429q32.571 0 74.571 19.429t54 45.714q12.571 30.286 12.571 57.714zM877.714 713.143v-548.571q0-68-48.286-116.286t-116.286-48.286h-548.571q-68 0-116.286 48.286t-48.286 116.286v548.571q0 68 48.286 116.286t116.286 48.286h548.571q68 0 116.286-48.286t48.286-116.286z" data-tags="phone-square" />
<glyph unicode="&#xe60e;" d="M925.714 717.714q-38.286-56-92.571-95.429 0.571-8 0.571-24 0-74.286-21.714-148.286t-66-142-105.429-120.286-147.429-83.429-184.571-31.143q-154.857 0-283.429 82.857 20-2.286 44.571-2.286 128.571 0 229.143 78.857-60 1.143-107.429 36.857t-65.143 91.143q18.857-2.857 34.857-2.857 24.571 0 48.571 6.286-64 13.143-106 63.714t-42 117.429v2.286q38.857-21.714 83.429-23.429-37.714 25.143-60 65.714t-22.286 88q0 50.286 25.143 93.143 69.143-85.143 168.286-136.286t212.286-56.857q-4.571 21.714-4.571 42.286 0 76.571 54 130.571t130.571 54q80 0 134.857-58.286 62.286 12 117.143 44.571-21.143-65.714-81.143-101.714 53.143 5.714 106.286 28.571z" horiz-adv-x="951" data-tags="twitter" />
<glyph unicode="&#xe60f;" d="M548 944v-150.857h-89.714q-49.143 0-66.286-20.571t-17.143-61.714v-108h167.429l-22.286-169.143h-145.143v-433.714h-174.857v433.714h-145.714v169.143h145.714v124.571q0 106.286 59.429 164.857t158.286 58.571q84 0 130.286-6.857z" horiz-adv-x="585" data-tags="facebook, facebook-f" />
<glyph unicode="&#xe610;" d="M384 248.747l-177.92 177.92-60.373-60.373 238.293-238.293 512 512-60.373 60.373z" data-tags="done" />
<glyph unicode="&#xe611;" d="M768 640l-60.373 60.373-270.507-270.72 60.373-60.373 270.507 270.72zM949.12 700.374l-451.84-451.627-177.92 177.92-60.373-60.373 238.293-238.293 512 512-60.16 60.373zM17.707 366.294l238.293-238.293 60.373 60.373-238.293 238.293-60.373-60.373z" data-tags="done-all" />
<glyph unicode="&#xe612;" d="M512 853.334c-164.907 0-298.667-133.76-298.667-298.667 0-224 298.667-554.667 298.667-554.667s298.667 330.667 298.667 554.667c0 164.907-133.76 298.667-298.667 298.667zM512 448c-58.88 0-106.667 47.787-106.667 106.667s47.787 106.667 106.667 106.667 106.667-47.787 106.667-106.667-47.787-106.667-106.667-106.667z" data-tags="room" />
<glyph unicode="&#xe613;" d="M170.667 298.667h725.333v85.333h-725.333v-85.333zM170.667 128h725.333v85.333h-725.333v-85.333zM170.667 469.334h725.333v85.333h-725.333v-85.333zM170.667 725.334v-85.333h725.333v85.333h-725.333z" data-tags="view-headline" />
<glyph unicode="&#xe614;" d="M853.333 768h-682.667c-47.147 0-84.907-38.187-84.907-85.333l-0.427-512c0-47.147 38.187-85.333 85.333-85.333h682.667c47.147 0 85.333 38.187 85.333 85.333v512c0 47.147-38.187 85.333-85.333 85.333zM853.333 597.334l-341.333-213.333-341.333 213.333v85.333l341.333-213.333 341.333 213.333v-85.333z" data-tags="email" />
<glyph unicode="&#xe615;" d="M810.667 384h-256v-256h-85.333v256h-256v85.333h256v256h85.333v-256h256v-85.333z" data-tags="add" />
<glyph unicode="&#xe616;" d="M810.667 810.667h-597.333c-47.147 0-85.333-38.187-85.333-85.333v-597.333c0-47.147 38.187-85.333 85.333-85.333h597.333c47.147 0 85.333 38.187 85.333 85.333v597.333c0 47.147-38.187 85.333-85.333 85.333zM725.333 384h-170.667v-170.667h-85.333v170.667h-170.667v85.333h170.667v170.667h85.333v-170.667h170.667v-85.333z" data-tags="add-box" />
<glyph unicode="&#xe617;" d="M512 853.334c-235.733 0-426.667-190.933-426.667-426.667s190.933-426.667 426.667-426.667 426.667 190.933 426.667 426.667-190.933 426.667-426.667 426.667zM725.333 384h-170.667v-170.667h-85.333v170.667h-170.667v85.333h170.667v170.667h85.333v-170.667h170.667v-85.333z" data-tags="add-circle" />
<glyph unicode="&#xe618;" d="M554.667 640h-85.333v-170.667h-170.667v-85.333h170.667v-170.667h85.333v170.667h170.667v85.333h-170.667v170.667zM512 853.334c-235.733 0-426.667-190.933-426.667-426.667s190.933-426.667 426.667-426.667 426.667 190.933 426.667 426.667-190.933 426.667-426.667 426.667zM512 85.334c-188.16 0-341.333 153.173-341.333 341.333s153.173 341.333 341.333 341.333 341.333-153.173 341.333-341.333-153.173-341.333-341.333-341.333z" data-tags="add-circle-outline" />
<glyph unicode="&#xe619;" d="M938.24 597.334c0 30.72-16 57.387-40.107 72.533l-386.133 226.133-386.133-226.133c-24.107-15.147-40.533-41.813-40.533-72.533v-426.667c0-47.147 38.187-85.333 85.333-85.333h682.667c47.147 0 85.333 38.187 85.333 85.333l-0.427 426.667zM512 384l-352.427 220.373 352.427 206.293 352.427-206.293-352.427-220.373z" data-tags="drafts" />
<glyph unicode="&#xe61a;" d="M853.333 768h-682.667c-47.147 0-84.907-38.187-84.907-85.333l-0.427-512c0-47.147 38.187-85.333 85.333-85.333h682.667c47.147 0 85.333 38.187 85.333 85.333v512c0 47.147-38.187 85.333-85.333 85.333zM853.333 597.334l-341.333-213.333-341.333 213.333v85.333l341.333-213.333 341.333 213.333v-85.333z" data-tags="mail" />
<glyph unicode="&#xe61b;" d="M853.333 768h-682.667c-47.147 0-84.907-38.187-84.907-85.333l-0.427-512c0-47.147 38.187-85.333 85.333-85.333h682.667c47.147 0 85.333 38.187 85.333 85.333v512c0 47.147-38.187 85.333-85.333 85.333zM853.333 597.334l-341.333-213.333-341.333 213.333v85.333l341.333-213.333 341.333 213.333v-85.333z" data-tags="markunread" />
<glyph unicode="&#xe61c;" d="M810.667 384h-597.333v85.333h597.333v-85.333z" data-tags="remove" />
<glyph unicode="&#xe61d;" d="M512 853.334c-235.733 0-426.667-190.933-426.667-426.667s190.933-426.667 426.667-426.667 426.667 190.933 426.667 426.667-190.933 426.667-426.667 426.667zM725.333 384h-426.667v85.333h426.667v-85.333z" data-tags="remove-circle" />
<glyph unicode="&#xe61e;" d="M298.667 469.334v-85.333h426.667v85.333h-426.667zM512 853.334c-235.733 0-426.667-190.933-426.667-426.667s190.933-426.667 426.667-426.667 426.667 190.933 426.667 426.667-190.933 426.667-426.667 426.667zM512 85.334c-188.16 0-341.333 153.173-341.333 341.333s153.173 341.333 341.333 341.333 341.333-153.173 341.333-341.333-153.173-341.333-341.333-341.333z" data-tags="remove-circle-outline" />
<glyph unicode="&#xe61f;" d="M85.333 277.334v-85.333h853.333v85.333h-853.333zM85.333 490.667v-85.333h853.333v85.333h-853.333zM85.333 704v-85.333h853.333v85.333h-853.333z" data-tags="dehaze" />
<glyph unicode="&#xe620;" d="M384 248.747l-177.92 177.92-60.373-60.373 238.293-238.293 512 512-60.373 60.373z" data-tags="check" />
<glyph unicode="&#xe621;" d="M657.707 622.294l-60.373 60.373-256-256 256-256 60.373 60.373-195.627 195.627z" data-tags="chevron-left" />
<glyph unicode="&#xe622;" d="M426.667 682.667l-60.373-60.373 195.627-195.627-195.627-195.627 60.373-60.373 256 256z" data-tags="chevron-right" />
<glyph unicode="&#xe623;" d="M512 597.334l-256-256 60.373-60.373 195.627 195.627 195.627-195.627 60.373 60.373z" data-tags="expand-less" />
<glyph unicode="&#xe624;" d="M707.627 572.374l-195.627-195.627-195.627 195.627-60.373-60.373 256-256 256 256z" data-tags="expand-more" />
<glyph unicode="&#xe625;" d="M512 201.814l263.68-159.147-69.973 299.947 232.96 201.813-306.773 26.027-119.893 282.88-119.893-282.88-306.773-26.027 232.96-201.813-69.973-299.947z" data-tags="star" />
<glyph unicode="&#xe626;" d="M938.667 523.094l-306.773 26.453-119.893 282.453-119.893-282.88-306.773-26.027 232.96-201.813-69.973-299.947 263.68 159.147 263.68-159.147-69.547 299.947 232.533 201.813zM512 260.267v396.8l72.96-172.373 186.88-16.213-141.653-122.88 42.667-182.613-160.853 97.28z" data-tags="star-half" />
<glyph unicode="&#xe627;" d="M938.667 544.427l-306.773 26.453-119.893 282.453-119.893-282.88-306.773-26.027 232.96-201.813-69.973-299.947 263.68 159.147 263.68-159.147-69.547 299.947 232.533 201.813zM512 281.6l-160.427-96.853 42.667 182.613-141.653 122.88 186.88 16.213 72.533 171.947 72.96-172.373 186.88-16.213-141.653-122.88 42.667-182.613-160.853 97.28z" data-tags="star-outline" />
<glyph unicode="&#xe628;" d="M512 960c-282.798 0-512-229.202-512-512 0-282.819 229.202-512 512-512 282.819 0 512 229.181 512 512 0 282.798-229.181 512-512 512v0zM795.208 576.399l0.43-17.603c0-181.596-138.834-390.799-392.428-390.799-77.599 0-149.996 22.815-211.21 61.604 10.803-1.208 21.596-1.987 32.809-1.987 64.799 0 123.996 21.985 171.192 58.788-60.385 1.208-111.186 40.796-128.788 95.601 8.397-1.597 17.193-2.396 25.999-2.396 12.79 0 24.801 1.597 36.403 4.813-63.201 12.401-110.797 67.983-110.797 134.39l0.389 1.987c18.401-10.394 39.608-16.384 62.413-17.183-37.212 24.392-61.614 66.376-61.614 114.391 0 24.812 6.799 48.404 18.811 68.813 67.994-83.2 169.595-137.615 283.986-143.606-1.987 10.414-3.594 20.797-3.594 31.601 0 75.612 61.972 137.206 137.994 137.206 39.608 0 75.622-16.804 100.823-43.213 31.212 6.001 60.815 17.603 87.624 33.208-10.435-32.010-32.42-59.197-60.815-76.001 27.996 3.185 54.405 10.803 79.176 21.596-18.371-27.617-42.015-51.599-68.803-71.209v0z" data-tags="twitter_icon" />
<glyph unicode="&#xe629;" d="M512-64c-282.77 0-512 229.23-512 512s229.23 512 512 512c282.77 0 512-229.23 512-512s-229.23-512-512-512zM625.459 583.287l-36.303 2.442v-37.412h-145.244v37.412l-36.303-2.442c-22.57-89.537-75.81-167.167-148.073-221.023v-146.892h513.984v146.892c-72.257 53.856-125.497 131.486-148.060 221.023zM763.643 637.143c-0.343 0-132.881 32.874-247.112 32.874-114.574 0-247.112-32.874-247.112-32.874-48.66-11.183-78.975-59.457-67.703-107.718 2.823-12.246 7.764-23.089 14.818-32.529l162.511 37.431c2.119 11.183 1.757 23.429-1.066 35.31-1.408 7.004-3.869 13.989-7.041 19.942 40.54 4.543 92.366 8.389 145.593 8.389s105.059-3.838 145.593-8.389c-3.172-5.96-5.633-12.945-7.403-19.942-2.468-11.888-2.823-24.127-0.704-35.31l107.171-72.748c33.842 6.645 62.051 32.17 70.164 67.845 11.266 48.261-19.043 96.535-67.709 107.718z" data-tags="subtracted" />
<glyph unicode="&#xe62a;" d="M1262.742 196.096c-103.403-120.15-218.013-206.848-343.832-260.096l-41.216 81.92c153.297 83.286 260.314 180.906 321.055 292.864 30.37 57.344 45.555 109.909 45.555 157.696 0 15.019-5.423 26.965-16.27 35.84s-25.67 13.312-44.47 13.312c-85.326-9.557-134.496-14.336-147.512-14.336-57.848 0-112.441 18.432-163.781 55.296s-77.010 90.794-77.010 161.792c0 68.267 23.139 125.269 69.417 171.008s112.079 68.608 197.405 68.608c99.788 0 184.028-36.522 252.722-109.568s103.041-165.546 103.041-277.504c0-131.073-51.701-256.682-155.104-376.832v0zM463.143 188.928c-106.296-116.737-220.182-201.045-341.663-252.928l-39.047 81.92c102.68 61.44 189.089 129.365 259.23 203.776s105.21 154.624 105.21 240.64c0 15.019-3.977 27.989-11.931 38.912s-22.777 16.384-44.47 16.384c-86.772-9.557-137.388-14.336-151.85-14.336-47.725 0-93.279 12.288-136.665 36.864-67.971 39.595-101.957 101.034-101.957 184.32 0 57.344 21.693 110.933 65.079 160.768s110.633 74.752 201.744 74.752c104.126 0 189.451-37.546 255.976-112.64s99.787-161.109 99.787-258.048c0-150.187-53.147-283.647-159.443-400.384v0z" horiz-adv-x="1418" data-tags="quote" />
<glyph unicode="&#xe62b;" d="M1262.742 196.096c-103.403-120.15-218.013-206.848-343.832-260.096l-41.216 81.92c153.297 83.286 260.314 180.906 321.055 292.864 30.37 57.344 45.555 109.909 45.555 157.696 0 15.019-5.423 26.965-16.27 35.84s-25.67 13.312-44.47 13.312c-85.326-9.557-134.496-14.336-147.512-14.336-57.848 0-112.441 18.432-163.781 55.296s-77.010 90.794-77.010 161.792c0 68.267 23.139 125.269 69.417 171.008s112.079 68.608 197.405 68.608c99.788 0 184.028-36.522 252.722-109.568s103.041-165.546 103.041-277.504c0-131.073-51.701-256.682-155.104-376.832v0zM463.143 188.928c-106.296-116.737-220.182-201.045-341.663-252.928l-39.047 81.92c102.68 61.44 189.089 129.365 259.23 203.776s105.21 154.624 105.21 240.64c0 15.019-3.977 27.989-11.931 38.912s-22.777 16.384-44.47 16.384c-86.772-9.557-137.388-14.336-151.85-14.336-47.725 0-93.279 12.288-136.665 36.864-67.971 39.595-101.957 101.034-101.957 184.32 0 57.344 21.693 110.933 65.079 160.768s110.633 74.752 201.744 74.752c104.126 0 189.451-37.546 255.976-112.64s99.787-161.109 99.787-258.048c0-150.187-53.147-283.647-159.443-400.384v0z" horiz-adv-x="1418" data-tags="quote-closed" />
<glyph unicode="&#xe62c;" d="M155.104 196.096c103.403-120.15 218.013-206.848 343.832-260.096l41.216 81.92c-153.297 83.286-260.314 180.906-321.055 292.864-30.37 57.344-45.555 109.909-45.555 157.696 0 15.019 5.423 26.965 16.27 35.84s25.67 13.312 44.47 13.312c85.326-9.557 134.496-14.336 147.512-14.336 57.848 0 112.441 18.432 163.781 55.296s77.010 90.794 77.010 161.792c0 68.267-23.139 125.269-69.417 171.008s-112.079 68.608-197.405 68.608c-99.788 0-184.028-36.522-252.722-109.568s-103.041-165.546-103.041-277.504c0-131.073 51.701-256.682 155.104-376.832v0zM954.703 188.928c106.296-116.737 220.182-201.045 341.663-252.928l39.047 81.92c-102.68 61.44-189.089 129.365-259.23 203.776s-105.21 154.624-105.21 240.64c0 15.019 3.977 27.989 11.931 38.912s22.777 16.384 44.47 16.384c86.772-9.557 137.388-14.336 151.85-14.336 47.725 0 93.279 12.288 136.665 36.864 67.971 39.595 101.957 101.034 101.957 184.32 0 57.344-21.693 110.933-65.079 160.768s-110.633 74.752-201.744 74.752c-104.126 0-189.451-37.546-255.976-112.64s-99.787-161.109-99.787-258.048c0-150.187 53.147-283.647 159.443-400.384v0z" horiz-adv-x="1418" data-tags="quote-opened" />
<glyph unicode="&#xe62d;" d="M766.587 884.714v27.599c0 26.3-21.334 47.687-47.554 47.687s-47.554-21.387-47.554-47.687v-27.599h-318.944v27.599c0 26.3-21.334 47.687-47.554 47.687s-47.554-21.387-47.554-47.687v-27.599h-100.459c-86.55 0-156.967-70.593-156.967-157.36v-633.995c0-86.753 70.417-157.36 156.967-157.36h710.065c86.55 0 156.967 70.607 156.967 157.36v633.995c0 86.753-70.417 157.36-156.967 157.36h-100.445z" data-tags="calendar" />
<glyph unicode="&#xe62e;" d="M0 472.447c0 269.305 218.145 487.553 487.311 487.553 269.117 0 487.291-218.248 487.291-487.553s-218.174-487.553-487.291-487.553c-269.166 0-487.311 218.248-487.311 487.553zM502.515 385.633l-271.807 195.382v-299.748h543.643v299.748l-271.836-195.382zM771.69 633.203h-538.322l269.146-193.12 269.175 193.12z" data-tags="mail_icon" />
<glyph unicode="&#xe62f;" d="M512 960c-282.798 0-512-229.202-512-512 0-282.819 229.202-512 512-512 4.045 0 8.028 0.215 12.052 0.297v375.88h-122.696v141.967h122.685v104.735c0 121.498 74.209 187.658 182.589 187.658 51.917 0 96.543-3.871 109.537-5.601v-126.966l-75.162-0.041c-58.941 0-70.359-28.006-70.359-69.11v-90.675h140.585l-18.319-141.957h-122.255v-350.996c205.097 66.765 353.341 259.389 353.341 486.81 0 282.798-229.181 512-512 512v0z" data-tags="facebook-icon" />
<glyph unicode="&#xe630;" d="M487.301-15.106c-269.129 0-487.301 218.285-487.301 487.553s218.172 487.553 487.301 487.553c269.129 0 487.301-218.285 487.301-487.553s-218.172-487.553-487.301-487.553zM492.653 784.481c-132.134 0-239.256-110.244-239.256-246.080 0-135.849 239.256-384.895 239.256-384.895s239.256 249.052 239.256 384.895c0.006 135.836-107.116 246.080-239.256 246.080zM487.301 418.275c65.787 0 119.118 53.359 119.118 119.18s-53.331 119.18-119.118 119.18c-65.787 0-119.118-53.359-119.118-119.18s53.331-119.18 119.118-119.18z" data-tags="karta" />
<glyph unicode="&#xe631;" d="M704 448h-64v-128h64v128zM576 448h-64v-128h64v128zM704 640h-64v-128h64v128zM832 448h-64v-128h64v128zM576 256h-64v-128h64v128zM768 960h-64v-128h64v128zM256 960h-64v-128h64v128zM832 640h-64v-128h64v128zM576 640h-64v-128h64v128zM320 256h-64v-128h64v128zM192 448h-64v-128h64v128zM320 448h-64v-128h64v128zM832 896v-128h-192v128h-320v-128h-192v128h-128v-896h960v896h-128zM896 64h-832v640h832v-640zM192 256h-64v-128h64v128zM448 640h-64v-128h64v128zM448 256h-64v-128h64v128zM320 640h-64v-128h64v128zM448 448h-64v-128h64v128zM704 256h-64v-128h64v128z" data-tags="calendar" />
<glyph unicode="&#xe632;" d="M640 768l-384-384-128 128-128-128 256-256 512 512-128 128z" horiz-adv-x="768" data-tags="check" />
<glyph unicode="&#xe633;" d="M512 640l-192-192-192 192-128-128 320-320 320 320-128 128z" horiz-adv-x="640" data-tags="chevron-down" />
<glyph unicode="&#xe634;" d="M448 640l-128 128-320-320 320-320 128 128-192 192 192 192z" horiz-adv-x="448" data-tags="chevron-left" />
<glyph unicode="&#xe635;" d="M128 768l-128-128 192-192-192-192 128-128 320 320-320 320z" horiz-adv-x="448" data-tags="chevron-right" />
<glyph unicode="&#xe636;" d="M320 704l-320-320 128-128 192 192 192-192 128 128-320 320z" horiz-adv-x="640" data-tags="chevron-up" />
<glyph unicode="&#xe637;" d="M384 384h256l64 64-64 64h-128v192l-64 64-64-64v-320zM448 896c-247.438 0-448-200.562-448-448s200.562-448 448-448c247.438 0 448 200.562 448 448s-200.562 448-448 448zM448 128c-176.25 0-320 143.75-320 320 0 175.938 144.188 319.5 320 320 175.812-0.5 320-144.062 320-320 0-176.25-143.75-320-320-320z" horiz-adv-x="896" data-tags="clock" />
<glyph unicode="&#xe638;" d="M320 960c-177 0-320-143-320-320s160-416 320-704c160 288 320 527 320 704s-143 320-320 320zM320 512c-71 0-128 57-128 128s57 128 128 128 128-57 128-128-57-128-128-128z" horiz-adv-x="640" data-tags="location" />
<glyph unicode="&#xe639;" d="M0 448v-256h256v256h-128c0 0 0 128 128 128v128c0 0-256 0-256-256zM640 576v128c0 0-256 0-256-256v-256h256v256h-128c0 0 0 128 128 128z" horiz-adv-x="640" data-tags="quote" />
<glyph unicode="&#xe63a;" d="M0 768v-128h768v128h-768zM0 384h768v128h-768v-128zM0 128h768v128h-768v-128z" horiz-adv-x="768" data-tags="three-bars" />
<glyph unicode="&#xe63b;" d="M0 576l383.75-383.75 383.75 383.75h-767.5z" horiz-adv-x="767" data-tags="triangle-down" />
<glyph unicode="&#xe63c;" d="M0 448.125l383.75-383.75v767.5l-383.75-383.75z" horiz-adv-x="383" data-tags="triangle-left" />
<glyph unicode="&#xe63d;" d="M0.062 831.75l383.75-383.75-383.75-383.75v767.5z" horiz-adv-x="383" data-tags="triangle-right" />
<glyph unicode="&#xe63e;" d="M383.75 704l-383.75-383.75h767.5l-383.75 383.75z" horiz-adv-x="767" data-tags="triangle-up" />
<glyph unicode="&#xe63f;" d="M981.188 799.892c-143.632 20.65-302.332 32.108-469.186 32.108-166.86 0-325.556-11.458-469.194-32.108-27.53-107.726-42.808-226.75-42.808-351.892 0-125.14 15.278-244.166 42.808-351.89 143.638-20.652 302.336-32.11 469.194-32.11 166.854 0 325.552 11.458 469.186 32.11 27.532 107.724 42.812 226.75 42.812 351.89 0 125.142-15.28 244.166-42.812 351.892zM384.002 256v384l320-192-320-192z" data-tags="play, video, movie" />
<glyph unicode="&#xe640;" d="M704 320c-64-64-64-128-128-128s-128 64-192 128-128 128-128 192 64 64 128 128-128 256-192 256-192-192-192-192c0-128 131.5-387.5 256-512s384-256 512-256c0 0 192 128 192 192s-192 256-256 192z" data-tags="phone, telephone, contact, support, call" />
<glyph unicode="&#xe641;" d="M928 832h-832c-52.8 0-96-43.2-96-96v-640c0-52.8 43.2-96 96-96h832c52.8 0 96 43.2 96 96v640c0 52.8-43.2 96-96 96zM398.74 409.628l-270.74-210.892v501.642l270.74-290.75zM176.38 704h671.24l-335.62-252-335.62 252zM409.288 398.302l102.712-110.302 102.71 110.302 210.554-270.302h-626.528l210.552 270.302zM625.26 409.628l270.74 290.75v-501.642l-270.74 210.892z" data-tags="envelop, mail, email, contact, letter" />
<glyph unicode="&#xe642;" d="M512 960c-176.732 0-320-143.268-320-320 0-320 320-704 320-704s320 384 320 704c0 176.732-143.27 320-320 320zM512 448c-106.040 0-192 85.96-192 192s85.96 192 192 192 192-85.96 192-192-85.96-192-192-192z" data-tags="location, map-marker, pin" />
<glyph unicode="&#xe643;" d="M512 960c-176.732 0-320-143.268-320-320 0-320 320-704 320-704s320 384 320 704c0 176.732-143.27 320-320 320zM512 444c-108.248 0-196 87.752-196 196s87.752 196 196 196 196-87.752 196-196-87.752-196-196-196zM388 640c0 68.483 55.517 124 124 124s124-55.517 124-124c0-68.483-55.517-124-124-124s-124 55.517-124 124z" data-tags="location, map-marker, pin" />
<glyph unicode="&#xe644;" d="M576 253.388v52.78c70.498 39.728 128 138.772 128 237.832 0 159.058 0 288-192 288s-192-128.942-192-288c0-99.060 57.502-198.104 128-237.832v-52.78c-217.102-17.748-384-124.42-384-253.388h896c0 128.968-166.898 235.64-384 253.388z" data-tags="user, profile, avatar, person, member" />
<glyph unicode="&#xe645;" d="M768 189.388v52.78c70.498 39.728 128 138.772 128 237.832 0 159.058 0 288-192 288s-192-128.942-192-288c0-99.060 57.502-198.104 128-237.832v-52.78c-217.102-17.748-384-124.42-384-253.388h896c0 128.968-166.898 235.64-384 253.388zM327.196 164.672c55.31 36.15 124.080 63.636 199.788 80.414-15.054 17.784-28.708 37.622-40.492 59.020-30.414 55.234-46.492 116.058-46.492 175.894 0 86.042 0 167.31 30.6 233.762 29.706 64.504 83.128 104.496 159.222 119.488-16.914 76.48-61.94 126.75-181.822 126.75-192 0-192-128.942-192-288 0-99.060 57.502-198.104 128-237.832v-52.78c-217.102-17.748-384-124.42-384-253.388h279.006c14.518 12.91 30.596 25.172 48.19 36.672z" horiz-adv-x="1152" data-tags="users, group, team, members, community, collaborate" />
<glyph unicode="&#xe646;" d="M384 224c0 151.234 95.874 280.486 230.032 330.2 16.28 36.538 25.968 77.164 25.968 117.8 0 159.058 0 288-192 288s-192-128.942-192-288c0-99.060 57.502-198.104 128-237.832v-52.78c-217.102-17.748-384-124.42-384-253.388h397.306c-8.664 30.53-13.306 62.732-13.306 96zM736 512c-159.058 0-288-128.942-288-288s128.942-288 288-288c159.056 0 288 128.942 288 288s-128.942 288-288 288zM896 192h-128v-128h-64v128h-128v64h128v128h64v-128h128v-64z" data-tags="user-plus, user, user-add, profile, avatar, person, member" />
<glyph unicode="&#xe647;" d="M384 224c0 151.234 95.874 280.486 230.032 330.2 16.28 36.538 25.968 77.164 25.968 117.8 0 159.058 0 288-192 288s-192-128.942-192-288c0-99.060 57.502-198.104 128-237.832v-52.78c-217.102-17.748-384-124.42-384-253.388h397.306c-8.664 30.53-13.306 62.732-13.306 96zM736 512c-159.058 0-288-128.942-288-288s128.942-288 288-288c159.056 0 288 128.942 288 288s-128.942 288-288 288zM896 192h-320v64h320v-64z" data-tags="user-minus, user, user-remove, profile, avatar, person, member" />
<glyph unicode="&#xe648;" d="M960 352l-288-288-96 96-64-64 160-160 352 352zM448 192h320v115.128c-67.22 39.2-156.308 66.11-256 74.26v52.78c70.498 39.728 128 138.772 128 237.832 0 159.058 0 288-192 288s-192-128.942-192-288c0-99.060 57.502-198.104 128-237.832v-52.78c-217.102-17.748-384-124.42-384-253.388h448v64z" data-tags="user-check, user, user-tick, profile, avatar, person, member" />
<glyph unicode="&#xe649;" d="M225 512c123.712 0 224-100.29 224-224 0-123.712-100.288-224-224-224s-224 100.288-224 224l-1 32c0 247.424 200.576 448 448 448v-128c-85.474 0-165.834-33.286-226.274-93.726-11.634-11.636-22.252-24.016-31.83-37.020 11.438 1.8 23.16 2.746 35.104 2.746zM801 512c123.71 0 224-100.29 224-224 0-123.712-100.29-224-224-224s-224 100.288-224 224l-1 32c0 247.424 200.576 448 448 448v-128c-85.474 0-165.834-33.286-226.274-93.726-11.636-11.636-22.254-24.016-31.832-37.020 11.44 1.8 23.16 2.746 35.106 2.746z" data-tags="quotes-left, ldquo" />
<glyph unicode="&#xe64a;" d="M800 320c-123.712 0-224 100.29-224 224 0 123.712 100.288 224 224 224s224-100.288 224-224l1-32c0-247.424-200.576-448-448-448v128c85.474 0 165.834 33.286 226.274 93.726 11.634 11.636 22.252 24.016 31.83 37.020-11.438-1.8-23.16-2.746-35.104-2.746zM224 320c-123.71 0-224 100.29-224 224 0 123.712 100.29 224 224 224s224-100.288 224-224l1-32c0-247.424-200.576-448-448-448v128c85.474 0 165.834 33.286 226.274 93.726 11.636 11.636 22.254 24.016 31.832 37.020-11.44-1.8-23.16-2.746-35.106-2.746z" data-tags="quotes-right, rdquo" />
<glyph unicode="&#xe64b;" d="M992 576h-352v352c0 17.672-14.328 32-32 32h-192c-17.672 0-32-14.328-32-32v-352h-352c-17.672 0-32-14.328-32-32v-192c0-17.672 14.328-32 32-32h352v-352c0-17.672 14.328-32 32-32h192c17.672 0 32 14.328 32 32v352h352c17.672 0 32 14.328 32 32v192c0 17.672-14.328 32-32 32z" data-tags="plus, add, sum" />
<glyph unicode="&#xe64c;" d="M0 544v-192c0-17.672 14.328-32 32-32h960c17.672 0 32 14.328 32 32v192c0 17.672-14.328 32-32 32h-960c-17.672 0-32-14.328-32-32z" data-tags="minus, subtract, minimize, line" />
<glyph unicode="&#xe64d;" d="M1014.662 137.34c-0.004 0.004-0.008 0.008-0.012 0.010l-310.644 310.65 310.644 310.65c0.004 0.004 0.008 0.006 0.012 0.010 3.344 3.346 5.762 7.254 7.312 11.416 4.246 11.376 1.824 24.682-7.324 33.83l-146.746 146.746c-9.148 9.146-22.45 11.566-33.828 7.32-4.16-1.55-8.070-3.968-11.418-7.31 0-0.004-0.004-0.006-0.008-0.010l-310.648-310.652-310.648 310.65c-0.004 0.004-0.006 0.006-0.010 0.010-3.346 3.342-7.254 5.76-11.414 7.31-11.38 4.248-24.682 1.826-33.83-7.32l-146.748-146.748c-9.148-9.148-11.568-22.452-7.322-33.828 1.552-4.16 3.97-8.072 7.312-11.416 0.004-0.002 0.006-0.006 0.010-0.010l310.65-310.648-310.65-310.652c-0.002-0.004-0.006-0.006-0.008-0.010-3.342-3.346-5.76-7.254-7.314-11.414-4.248-11.376-1.826-24.682 7.322-33.83l146.748-146.746c9.15-9.148 22.452-11.568 33.83-7.322 4.16 1.552 8.070 3.97 11.416 7.312 0.002 0.004 0.006 0.006 0.010 0.010l310.648 310.65 310.648-310.65c0.004-0.002 0.008-0.006 0.012-0.008 3.348-3.344 7.254-5.762 11.414-7.314 11.378-4.246 24.684-1.826 33.828 7.322l146.746 146.748c9.148 9.148 11.57 22.454 7.324 33.83-1.552 4.16-3.97 8.068-7.314 11.414z" data-tags="cross, cancel, close, quit, remove" />
<glyph unicode="&#xe64e;" d="M864 832l-480-480-224 224-160-160 384-384 640 640z" data-tags="checkmark, tick, correct, accept, ok" />
<glyph unicode="&#xe64f;" d="M512 960c-282.77 0-512-229.23-512-512s229.23-512 512-512 512 229.23 512 512-229.23 512-512 512zM256 704h512c9.138 0 18.004-1.962 26.144-5.662l-282.144-329.168-282.144 329.17c8.14 3.696 17.006 5.66 26.144 5.66zM192 256v384c0 1.34 0.056 2.672 0.14 4l187.664-218.942-185.598-185.598c-1.444 5.336-2.206 10.886-2.206 16.54zM768 192h-512c-5.654 0-11.202 0.762-16.54 2.208l182.118 182.118 90.422-105.498 90.424 105.494 182.116-182.12c-5.34-1.44-10.886-2.202-16.54-2.202zM832 256c0-5.654-0.762-11.2-2.206-16.54l-185.6 185.598 187.666 218.942c0.084-1.328 0.14-2.66 0.14-4v-384z" data-tags="mail, contact, support, newsletter, letter, email, envelop, social" />
<glyph unicode="&#xe650;" d="M672 768c-88.366 0-160-71.634-160-160v-96h-128v-128h128v-448h128v448h144l32 128h-176v96c0 17.672 14.326 32 32 32h160v128h-160z" data-tags="facebook, brand, social" />
<glyph unicode="&#xe651;" d="M853.35 960h-682.702c-94.25 0-170.648-76.42-170.648-170.686v-682.63c0-94.266 76.398-170.684 170.648-170.684h341.352v448h-128v128h128v96c0 88.366 71.634 160 160 160h160v-128h-160c-17.674 0-32-14.328-32-32v-96h176l-32-128h-144v-448h213.35c94.25 0 170.65 76.418 170.65 170.684v682.63c0 94.266-76.4 170.686-170.65 170.686z" data-tags="facebook, brand, social" />
<glyph unicode="&#xe652;" d="M512 960c-282.77 0-512-229.23-512-512s229.23-512 512-512v384h-128v128h128v96c0 88.366 71.632 160 160 160h160v-128h-160c-17.674 0-32-14.328-32-32v-96h176l-32-128h-144v-367.87c220.828 56.838 384 257.3 384 495.87 0 282.77-229.23 512-512 512z" data-tags="facebook, brand, social" />
<glyph unicode="&#xe653;" d="M854 960h-684c-93.5 0-170-76.5-170-170v-684c0-93.5 76.5-170 170-170h684c93.5 0 170 76.5 170 170v684c0 93.5-76.5 170-170 170zM327.8 512h368.4c6.988-20.058 10.8-41.59 10.8-64 0-107.524-87.476-195-195-195s-195 87.476-195 195c0 22.41 3.812 43.942 10.8 64zM896 511.95v-383.95c0-35.2-28.8-64-64-64h-640c-35.2 0-64 28.8-64 64v384h100.108c-4.642-20.602-7.108-42.016-7.108-64 0-160.458 130.542-291 291-291s291 130.542 291 291c0 21.984-2.464 43.398-7.108 64l100.108-0.050zM896 736c0-17.6-14.4-32-32-32h-64c-17.6 0-32 14.4-32 32v64c0 17.6 14.4 32 32 32h64c17.6 0 32-14.4 32-32v-64z" data-tags="instagram, brand, social" />
<glyph unicode="&#xe654;" d="M1024 765.582c-37.676-16.708-78.164-28.002-120.66-33.080 43.372 26 76.686 67.17 92.372 116.23-40.596-24.078-85.556-41.56-133.41-50.98-38.32 40.83-92.922 66.34-153.346 66.34-116.022 0-210.088-94.058-210.088-210.078 0-16.466 1.858-32.5 5.44-47.878-174.6 8.764-329.402 92.4-433.018 219.506-18.084-31.028-28.446-67.116-28.446-105.618 0-72.888 37.088-137.192 93.46-174.866-34.438 1.092-66.832 10.542-95.154 26.278-0.020-0.876-0.020-1.756-0.020-2.642 0-101.788 72.418-186.696 168.522-206-17.626-4.8-36.188-7.372-55.348-7.372-13.538 0-26.698 1.32-39.528 3.772 26.736-83.46 104.32-144.206 196.252-145.896-71.9-56.35-162.486-89.934-260.916-89.934-16.958 0-33.68 0.994-50.116 2.94 92.972-59.61 203.402-94.394 322.042-94.394 386.422 0 597.736 320.124 597.736 597.744 0 9.108-0.206 18.168-0.61 27.18 41.056 29.62 76.672 66.62 104.836 108.748z" data-tags="twitter, brand, tweet, social" />
<glyph unicode="&#xe655;" d="M853.342 960h-682.656c-93.874 0-170.686-76.81-170.686-170.69v-682.624c0-93.936 76.812-170.686 170.686-170.686h682.656c93.876 0 170.658 76.75 170.658 170.69v682.62c0 93.88-76.782 170.69-170.658 170.69zM766.478 578.52c0.252-5.632 0.38-11.296 0.38-16.988 0-173.51-132.070-373.588-373.584-373.588-74.15 0-143.168 21.738-201.276 58.996 10.272-1.218 20.724-1.84 31.322-1.84 61.518 0 118.134 20.992 163.072 56.21-57.458 1.054-105.948 39.020-122.658 91.184 8.018-1.532 16.244-2.36 24.704-2.36 11.976 0 23.578 1.61 34.592 4.61-60.064 12.066-105.326 65.132-105.326 128.75 0 0.554 0 1.104 0.012 1.652 17.7-9.834 37.948-15.742 59.47-16.424-35.232 23.546-58.414 63.736-58.414 109.292 0 24.064 6.476 46.62 17.78 66.010 64.76-79.44 161.51-131.712 270.634-137.19-2.238 9.612-3.4 19.632-3.4 29.924 0 72.512 58.792 131.298 131.304 131.298 37.766 0 71.892-15.944 95.842-41.462 29.908 5.886 58.008 16.814 83.38 31.862-9.804-30.662-30.624-56.394-57.732-72.644 26.56 3.174 51.866 10.232 75.412 20.674-17.594-26.328-39.854-49.454-65.514-67.966z" data-tags="twitter, brand, tweet, social" />
<glyph unicode="&#xe656;" d="M512 960c-282.77 0-512-229.23-512-512s229.23-512 512-512 512 229.23 512 512-229.23 512-512 512zM766.478 578.52c0.252-5.632 0.38-11.296 0.38-16.988 0-173.51-132.070-373.588-373.584-373.588-74.15 0-143.168 21.738-201.276 58.996 10.272-1.218 20.724-1.84 31.322-1.84 61.518 0 118.134 20.992 163.072 56.21-57.458 1.054-105.948 39.020-122.658 91.184 8.018-1.532 16.244-2.36 24.704-2.36 11.976 0 23.578 1.61 34.592 4.61-60.064 12.066-105.326 65.132-105.326 128.75 0 0.554 0 1.104 0.012 1.652 17.7-9.834 37.948-15.742 59.47-16.424-35.232 23.546-58.414 63.736-58.414 109.292 0 24.064 6.476 46.62 17.78 66.010 64.76-79.44 161.51-131.712 270.634-137.19-2.238 9.612-3.4 19.632-3.4 29.924 0 72.512 58.792 131.298 131.304 131.298 37.766 0 71.892-15.944 95.842-41.462 29.908 5.886 58.008 16.814 83.38 31.862-9.804-30.662-30.624-56.394-57.732-72.644 26.56 3.174 51.866 10.232 75.412 20.674-17.594-26.328-39.854-49.454-65.514-67.966z" data-tags="twitter, brand, social" />
<glyph unicode="&#xe657;" d="M832 832h-640c-105.6 0-192-86.4-192-192v-384c0-105.6 86.4-192 192-192h640c105.6 0 192 86.4 192 192v384c0 105.6-86.4 192-192 192zM384 192v512l320-256-320-256z" data-tags="youtube, brand, social" />
<glyph unicode="&#xe658;" d="M832 832h-640c-105.6 0-192-86.4-192-192v-384c0-105.6 86.4-192 192-192h640c105.6 0 192 86.4 192 192v384c0 105.6-86.4 192-192 192zM960 256c0-33.978-13.374-66.062-37.654-90.346-24.284-24.28-56.366-37.654-90.346-37.654h-640c-33.978 0-66.062 13.374-90.344 37.654-24.282 24.284-37.656 56.368-37.656 90.346v384c0 33.978 13.374 66.062 37.656 90.344s56.366 37.656 90.344 37.656h640c33.978 0 66.062-13.374 90.346-37.656 24.282-24.282 37.654-56.366 37.654-90.344v-384zM384 192l320 256-320 256z" data-tags="youtube, brand, social" />
<glyph unicode="&#xe659;" d="M293.188 960l-69.188-137.234-69.188 137.234h-88.248l124.71-217.314 0.726 0.43v-167.116h64v167.116l0.726-0.43 124.71 217.314zM480 832c17.346 0 32-14.654 32-32v-128c0-17.346-14.654-32-32-32s-32 14.654-32 32v128c0 17.346 14.654 32 32 32zM480 896c-52.8 0-96-43.2-96-96v-128c0-52.8 43.2-96 96-96s96 43.2 96 96v128c0 52.8-43.2 96-96 96v0zM768 896v-251.968c-27.922-23.288-64-37.332-64 45.634v206.334h-64v-219.324h0.096c0.986-52.91 12.142-148.168 127.904-70.712v-29.964h64v320h-64zM864 256c-17.644 0-32-14.356-32-32v-32h64v32c0 17.644-14.356 32-32 32zM576 224v-168c21.666-21.666 64-24 64 8s0 118 0 150-32 42-64 10zM1018.766 378.46c-2.792 36.862-16.046 66.942-39.778 90.244-23.726 23.298-54.080 35.994-91.068 38.080-69.784 3.478-229.452 5.216-369.716 5.216-140.266 0-311.294-1.738-381.078-5.216-36.986-2.086-67.342-14.782-91.068-38.080-23.728-23.302-36.988-53.382-39.778-90.244-4.188-75.116-6.28-102.352-6.28-139.91 0-37.56 2.092-93.894 6.28-169.012 2.792-36.862 16.050-66.944 39.778-90.244 23.726-23.298 54.082-35.992 91.068-38.080 69.782-3.476 240.81-5.214 381.078-5.214 140.266 0 299.934 1.738 369.716 5.214 36.988 2.088 67.342 14.782 91.068 38.080 23.73 23.3 36.986 53.382 39.778 90.244 3.49 62.598 5.234 118.934 5.234 169.012 0 50.076-1.744 77.314-5.234 139.91zM192 0h-64v320h-64v64h192v-64h-64v-320zM448 0h-64v29.962c-121.666-68.294-126.918-2.198-127.904 50.712h-0.096v175.326h64v-176.334c0-38.666 36.078-34.924 64-11.634v187.968h64v-256zM704 64.914c0-66.892-68.504-86.402-128-34.39v-30.524h-64v384h64v-104c64 64 128 40 128-24s0-121.172 0-191.086zM960 192v-32h-128v-64c0-17.644 14.356-32 32-32s32 14.356 32 32v32h64v-32c0-52.934-43.066-96-96-96s-96 43.066-96 96v128c0 52.934 43.066 96 96 96s96-43.066 96-96v-32z" data-tags="youtube, brand, social" />
<glyph unicode="&#xe65a;" d="M852 960h-680c-94.6 0-172-77.4-172-172v-680c0-94.6 77.4-172 172-172h680c94.6 0 172 77.4 172 172v680c0 94.6-77.4 172-172 172zM384 128h-128v448h128v-448zM320 640c-35.346 0-64 28.654-64 64s28.654 64 64 64 64-28.654 64-64-28.654-64-64-64zM832 128h-128v256c0 35.346-28.654 64-64 64s-64-28.654-64-64v-256h-128v448h128v-79.472c26.398 36.264 66.752 79.472 112 79.472 79.53 0 144-71.634 144-160v-288z" data-tags="linkedin, brand, social" />
<glyph unicode="&#xe65b;" d="M384 576h177.106v-90.782h2.532c24.64 44.194 84.958 90.782 174.842 90.782 186.946 0 221.52-116.376 221.52-267.734v-308.266h-184.61v273.278c0 65.184-1.334 149.026-96.028 149.026-96.148 0-110.82-70.986-110.82-144.292v-278.012h-184.542v576zM64 576h192v-576h-192v576zM256 736c0-53.019-42.981-96-96-96s-96 42.981-96 96c0 53.019 42.981 96 96 96s96-42.981 96-96z" data-tags="linkedin, brand, social" />
<glyph unicode="&#xe65c;" d="M512.064 392.128c105.888 0 192 86.144 192 192s-86.112 192-192 192c-105.888 0-192-86.112-192-192s86.112-192 192-192zM512.064 744.128c88.256 0 160-71.744 160-160s-71.744-160-160-160c-88.256 0-160 71.744-160 160s71.744 160 160 160zM512 960c-211.776 0-384-170.112-384-384.032 0-224 192.032-453.152 332.032-614.208 0.512-0.64 22.976-25.76 50.752-25.76 0.064 0 2.336 0 2.464 0 27.744 0 50.24 25.12 50.752 25.76 140.064 161.056 332.064 390.176 332.064 614.208 0 213.92-172.256 384.032-384.064 384.032zM515.744 3.744c-0.672-0.64-2.624-2.048-4.32-3.136-0.32 0.864-2.688 2.752-4.128 4.256-117.28 134.944-315.296 362.688-315.296 571.104 0 176.448 143.584 320.032 320 320.032 176.512 0 320.064-143.584 320.064-320.064 0-208.384-198.016-436.128-316.32-572.192z" data-tags="location, map" />
<glyph unicode="" d="M512.064 392.128c105.888 0 192 86.144 192 192s-86.112 192-192 192c-105.888 0-192-86.112-192-192s86.112-192 192-192zM512.064 744.128c88.256 0 160-71.744 160-160s-71.744-160-160-160c-88.256 0-160 71.744-160 160s71.744 160 160 160zM512 960c-211.776 0-384-170.112-384-384.032 0-224 192.032-453.152 332.032-614.208 0.512-0.64 22.976-25.76 50.752-25.76 0.064 0 2.336 0 2.464 0 27.744 0 50.24 25.12 50.752 25.76 140.064 161.056 332.064 390.176 332.064 614.208 0 213.92-172.256 384.032-384.064 384.032zM515.744 3.744c-0.672-0.64-2.624-2.048-4.32-3.136-0.32 0.864-2.688 2.752-4.128 4.256-117.28 134.944-315.296 362.688-315.296 571.104 0 176.448 143.584 320.032 320 320.032 176.512 0 320.064-143.584 320.064-320.064 0-208.384-198.016-436.128-316.32-572.192z" data-tags="location, map" />
<glyph unicode="youtube3" d="M293.188 960l-69.188-137.234-69.188 137.234h-88.248l124.71-217.314 0.726 0.43v-167.116h64v167.116l0.726-0.43 124.71 217.314zM480 832c17.346 0 32-14.654 32-32v-128c0-17.346-14.654-32-32-32s-32 14.654-32 32v128c0 17.346 14.654 32 32 32zM480 896c-52.8 0-96-43.2-96-96v-128c0-52.8 43.2-96 96-96s96 43.2 96 96v128c0 52.8-43.2 96-96 96v0zM768 896v-251.968c-27.922-23.288-64-37.332-64 45.634v206.334h-64v-219.324h0.096c0.986-52.91 12.142-148.168 127.904-70.712v-29.964h64v320h-64zM864 256c-17.644 0-32-14.356-32-32v-32h64v32c0 17.644-14.356 32-32 32zM576 224v-168c21.666-21.666 64-24 64 8s0 118 0 150-32 42-64 10zM1018.766 378.46c-2.792 36.862-16.046 66.942-39.778 90.244-23.726 23.298-54.080 35.994-91.068 38.080-69.784 3.478-229.452 5.216-369.716 5.216-140.266 0-311.294-1.738-381.078-5.216-36.986-2.086-67.342-14.782-91.068-38.080-23.728-23.302-36.988-53.382-39.778-90.244-4.188-75.116-6.28-102.352-6.28-139.91 0-37.56 2.092-93.894 6.28-169.012 2.792-36.862 16.050-66.944 39.778-90.244 23.726-23.298 54.082-35.992 91.068-38.080 69.782-3.476 240.81-5.214 381.078-5.214 140.266 0 299.934 1.738 369.716 5.214 36.988 2.088 67.342 14.782 91.068 38.080 23.73 23.3 36.986 53.382 39.778 90.244 3.49 62.598 5.234 118.934 5.234 169.012 0 50.076-1.744 77.314-5.234 139.91zM192 0h-64v320h-64v64h192v-64h-64v-320zM448 0h-64v29.962c-121.666-68.294-126.918-2.198-127.904 50.712h-0.096v175.326h64v-176.334c0-38.666 36.078-34.924 64-11.634v187.968h64v-256zM704 64.914c0-66.892-68.504-86.402-128-34.39v-30.524h-64v384h64v-104c64 64 128 40 128-24s0-121.172 0-191.086zM960 192v-32h-128v-64c0-17.644 14.356-32 32-32s32 14.356 32 32v32h64v-32c0-52.934-43.066-96-96-96s-96 43.066-96 96v128c0 52.934 43.066 96 96 96s96-43.066 96-96v-32z" data-tags="youtube, brand, social" />
<glyph unicode="youtube2" d="M832 832h-640c-105.6 0-192-86.4-192-192v-384c0-105.6 86.4-192 192-192h640c105.6 0 192 86.4 192 192v384c0 105.6-86.4 192-192 192zM960 256c0-33.978-13.374-66.062-37.654-90.346-24.284-24.28-56.366-37.654-90.346-37.654h-640c-33.978 0-66.062 13.374-90.344 37.654-24.282 24.284-37.656 56.368-37.656 90.346v384c0 33.978 13.374 66.062 37.656 90.344s56.366 37.656 90.344 37.656h640c33.978 0 66.062-13.374 90.346-37.656 24.282-24.282 37.654-56.366 37.654-90.344v-384zM384 192l320 256-320 256z" data-tags="youtube, brand, social" />
<glyph unicode="youtube" d="M832 832h-640c-105.6 0-192-86.4-192-192v-384c0-105.6 86.4-192 192-192h640c105.6 0 192 86.4 192 192v384c0 105.6-86.4 192-192 192zM384 192v512l320-256-320-256z" data-tags="youtube, brand, social" />
<glyph unicode="video" d="M981.188 799.892c-143.632 20.65-302.332 32.108-469.186 32.108-166.86 0-325.556-11.458-469.194-32.108-27.53-107.726-42.808-226.75-42.808-351.892 0-125.14 15.278-244.166 42.808-351.89 143.638-20.652 302.336-32.11 469.194-32.11 166.854 0 325.552 11.458 469.186 32.11 27.532 107.724 42.812 226.75 42.812 351.89 0 125.142-15.28 244.166-42.812 351.892zM384.002 256v384l320-192-320-192z" data-tags="play, video, movie" />
<glyph unicode="users" d="M768 189.388v52.78c70.498 39.728 128 138.772 128 237.832 0 159.058 0 288-192 288s-192-128.942-192-288c0-99.060 57.502-198.104 128-237.832v-52.78c-217.102-17.748-384-124.42-384-253.388h896c0 128.968-166.898 235.64-384 253.388zM327.196 164.672c55.31 36.15 124.080 63.636 199.788 80.414-15.054 17.784-28.708 37.622-40.492 59.020-30.414 55.234-46.492 116.058-46.492 175.894 0 86.042 0 167.31 30.6 233.762 29.706 64.504 83.128 104.496 159.222 119.488-16.914 76.48-61.94 126.75-181.822 126.75-192 0-192-128.942-192-288 0-99.060 57.502-198.104 128-237.832v-52.78c-217.102-17.748-384-124.42-384-253.388h279.006c14.518 12.91 30.596 25.172 48.19 36.672z" horiz-adv-x="1152" data-tags="users, group, team, members, community, collaborate" />
<glyph unicode="user4" d="M960 352l-288-288-96 96-64-64 160-160 352 352zM448 192h320v115.128c-67.22 39.2-156.308 66.11-256 74.26v52.78c70.498 39.728 128 138.772 128 237.832 0 159.058 0 288-192 288s-192-128.942-192-288c0-99.060 57.502-198.104 128-237.832v-52.78c-217.102-17.748-384-124.42-384-253.388h448v64z" data-tags="user-check, user, user-tick, profile, avatar, person, member" />
<glyph unicode="user3" d="M384 224c0 151.234 95.874 280.486 230.032 330.2 16.28 36.538 25.968 77.164 25.968 117.8 0 159.058 0 288-192 288s-192-128.942-192-288c0-99.060 57.502-198.104 128-237.832v-52.78c-217.102-17.748-384-124.42-384-253.388h397.306c-8.664 30.53-13.306 62.732-13.306 96zM736 512c-159.058 0-288-128.942-288-288s128.942-288 288-288c159.056 0 288 128.942 288 288s-128.942 288-288 288zM896 192h-320v64h320v-64z" data-tags="user-minus, user, user-remove, profile, avatar, person, member" />
<glyph unicode="user2" d="M384 224c0 151.234 95.874 280.486 230.032 330.2 16.28 36.538 25.968 77.164 25.968 117.8 0 159.058 0 288-192 288s-192-128.942-192-288c0-99.060 57.502-198.104 128-237.832v-52.78c-217.102-17.748-384-124.42-384-253.388h397.306c-8.664 30.53-13.306 62.732-13.306 96zM736 512c-159.058 0-288-128.942-288-288s128.942-288 288-288c159.056 0 288 128.942 288 288s-128.942 288-288 288zM896 192h-128v-128h-64v128h-128v64h128v128h64v-128h128v-64z" data-tags="user-plus, user, user-add, profile, avatar, person, member" />
<glyph unicode="user-plus" d="M384 224c0 151.234 95.874 280.486 230.032 330.2 16.28 36.538 25.968 77.164 25.968 117.8 0 159.058 0 288-192 288s-192-128.942-192-288c0-99.060 57.502-198.104 128-237.832v-52.78c-217.102-17.748-384-124.42-384-253.388h397.306c-8.664 30.53-13.306 62.732-13.306 96zM736 512c-159.058 0-288-128.942-288-288s128.942-288 288-288c159.056 0 288 128.942 288 288s-128.942 288-288 288zM896 192h-128v-128h-64v128h-128v64h128v128h64v-128h128v-64z" data-tags="user-plus, user, user-add, profile, avatar, person, member" />
<glyph unicode="user-minus" d="M384 224c0 151.234 95.874 280.486 230.032 330.2 16.28 36.538 25.968 77.164 25.968 117.8 0 159.058 0 288-192 288s-192-128.942-192-288c0-99.060 57.502-198.104 128-237.832v-52.78c-217.102-17.748-384-124.42-384-253.388h397.306c-8.664 30.53-13.306 62.732-13.306 96zM736 512c-159.058 0-288-128.942-288-288s128.942-288 288-288c159.056 0 288 128.942 288 288s-128.942 288-288 288zM896 192h-320v64h320v-64z" data-tags="user-minus, user, user-remove, profile, avatar, person, member" />
<glyph unicode="user-check" d="M960 352l-288-288-96 96-64-64 160-160 352 352zM448 192h320v115.128c-67.22 39.2-156.308 66.11-256 74.26v52.78c70.498 39.728 128 138.772 128 237.832 0 159.058 0 288-192 288s-192-128.942-192-288c0-99.060 57.502-198.104 128-237.832v-52.78c-217.102-17.748-384-124.42-384-253.388h448v64z" data-tags="user-check, user, user-tick, profile, avatar, person, member" />
<glyph unicode="user" d="M576 253.388v52.78c70.498 39.728 128 138.772 128 237.832 0 159.058 0 288-192 288s-192-128.942-192-288c0-99.060 57.502-198.104 128-237.832v-52.78c-217.102-17.748-384-124.42-384-253.388h896c0 128.968-166.898 235.64-384 253.388z" data-tags="user, profile, avatar, person, member" />
<glyph unicode="twitter3" d="M512 960c-282.77 0-512-229.23-512-512s229.23-512 512-512 512 229.23 512 512-229.23 512-512 512zM766.478 578.52c0.252-5.632 0.38-11.296 0.38-16.988 0-173.51-132.070-373.588-373.584-373.588-74.15 0-143.168 21.738-201.276 58.996 10.272-1.218 20.724-1.84 31.322-1.84 61.518 0 118.134 20.992 163.072 56.21-57.458 1.054-105.948 39.020-122.658 91.184 8.018-1.532 16.244-2.36 24.704-2.36 11.976 0 23.578 1.61 34.592 4.61-60.064 12.066-105.326 65.132-105.326 128.75 0 0.554 0 1.104 0.012 1.652 17.7-9.834 37.948-15.742 59.47-16.424-35.232 23.546-58.414 63.736-58.414 109.292 0 24.064 6.476 46.62 17.78 66.010 64.76-79.44 161.51-131.712 270.634-137.19-2.238 9.612-3.4 19.632-3.4 29.924 0 72.512 58.792 131.298 131.304 131.298 37.766 0 71.892-15.944 95.842-41.462 29.908 5.886 58.008 16.814 83.38 31.862-9.804-30.662-30.624-56.394-57.732-72.644 26.56 3.174 51.866 10.232 75.412 20.674-17.594-26.328-39.854-49.454-65.514-67.966z" data-tags="twitter, brand, social" />
<glyph unicode="twitter2" d="M853.342 960h-682.656c-93.874 0-170.686-76.81-170.686-170.69v-682.624c0-93.936 76.812-170.686 170.686-170.686h682.656c93.876 0 170.658 76.75 170.658 170.69v682.62c0 93.88-76.782 170.69-170.658 170.69zM766.478 578.52c0.252-5.632 0.38-11.296 0.38-16.988 0-173.51-132.070-373.588-373.584-373.588-74.15 0-143.168 21.738-201.276 58.996 10.272-1.218 20.724-1.84 31.322-1.84 61.518 0 118.134 20.992 163.072 56.21-57.458 1.054-105.948 39.020-122.658 91.184 8.018-1.532 16.244-2.36 24.704-2.36 11.976 0 23.578 1.61 34.592 4.61-60.064 12.066-105.326 65.132-105.326 128.75 0 0.554 0 1.104 0.012 1.652 17.7-9.834 37.948-15.742 59.47-16.424-35.232 23.546-58.414 63.736-58.414 109.292 0 24.064 6.476 46.62 17.78 66.010 64.76-79.44 161.51-131.712 270.634-137.19-2.238 9.612-3.4 19.632-3.4 29.924 0 72.512 58.792 131.298 131.304 131.298 37.766 0 71.892-15.944 95.842-41.462 29.908 5.886 58.008 16.814 83.38 31.862-9.804-30.662-30.624-56.394-57.732-72.644 26.56 3.174 51.866 10.232 75.412 20.674-17.594-26.328-39.854-49.454-65.514-67.966z" data-tags="twitter, brand, tweet, social" />
<glyph unicode="twitter" d="M1024 765.582c-37.676-16.708-78.164-28.002-120.66-33.080 43.372 26 76.686 67.17 92.372 116.23-40.596-24.078-85.556-41.56-133.41-50.98-38.32 40.83-92.922 66.34-153.346 66.34-116.022 0-210.088-94.058-210.088-210.078 0-16.466 1.858-32.5 5.44-47.878-174.6 8.764-329.402 92.4-433.018 219.506-18.084-31.028-28.446-67.116-28.446-105.618 0-72.888 37.088-137.192 93.46-174.866-34.438 1.092-66.832 10.542-95.154 26.278-0.020-0.876-0.020-1.756-0.020-2.642 0-101.788 72.418-186.696 168.522-206-17.626-4.8-36.188-7.372-55.348-7.372-13.538 0-26.698 1.32-39.528 3.772 26.736-83.46 104.32-144.206 196.252-145.896-71.9-56.35-162.486-89.934-260.916-89.934-16.958 0-33.68 0.994-50.116 2.94 92.972-59.61 203.402-94.394 322.042-94.394 386.422 0 597.736 320.124 597.736 597.744 0 9.108-0.206 18.168-0.61 27.18 41.056 29.62 76.672 66.62 104.836 108.748z" data-tags="twitter, brand, tweet, social" />
<glyph unicode="tick" d="M864 832l-480-480-224 224-160-160 384-384 640 640z" data-tags="checkmark, tick, correct, accept, ok" />
<glyph unicode="telephone" d="M704 320c-64-64-64-128-128-128s-128 64-192 128-128 128-128 192 64 64 128 128-128 256-192 256-192-192-192-192c0-128 131.5-387.5 256-512s384-256 512-256c0 0 192 128 192 192s-192 256-256 192z" data-tags="phone, telephone, contact, support, call" />
<glyph unicode="subtract" d="M0 544v-192c0-17.672 14.328-32 32-32h960c17.672 0 32 14.328 32 32v192c0 17.672-14.328 32-32 32h-960c-17.672 0-32-14.328-32-32z" data-tags="minus, subtract, minimize, line" />
<glyph unicode="rdquo" d="M800 320c-123.712 0-224 100.29-224 224 0 123.712 100.288 224 224 224s224-100.288 224-224l1-32c0-247.424-200.576-448-448-448v128c85.474 0 165.834 33.286 226.274 93.726 11.634 11.636 22.252 24.016 31.83 37.020-11.438-1.8-23.16-2.746-35.104-2.746zM224 320c-123.71 0-224 100.29-224 224 0 123.712 100.29 224 224 224s224-100.288 224-224l1-32c0-247.424-200.576-448-448-448v128c85.474 0 165.834 33.286 226.274 93.726 11.636 11.636 22.254 24.016 31.832 37.020-11.44-1.8-23.16-2.746-35.106-2.746z" data-tags="quotes-right, rdquo" />
<glyph unicode="quotes-right" d="M800 320c-123.712 0-224 100.29-224 224 0 123.712 100.288 224 224 224s224-100.288 224-224l1-32c0-247.424-200.576-448-448-448v128c85.474 0 165.834 33.286 226.274 93.726 11.634 11.636 22.252 24.016 31.83 37.020-11.438-1.8-23.16-2.746-35.104-2.746zM224 320c-123.71 0-224 100.29-224 224 0 123.712 100.29 224 224 224s224-100.288 224-224l1-32c0-247.424-200.576-448-448-448v128c85.474 0 165.834 33.286 226.274 93.726 11.636 11.636 22.254 24.016 31.832 37.020-11.44-1.8-23.16-2.746-35.106-2.746z" data-tags="quotes-right, rdquo" />
<glyph unicode="quotes-left" d="M225 512c123.712 0 224-100.29 224-224 0-123.712-100.288-224-224-224s-224 100.288-224 224l-1 32c0 247.424 200.576 448 448 448v-128c-85.474 0-165.834-33.286-226.274-93.726-11.634-11.636-22.252-24.016-31.83-37.020 11.438 1.8 23.16 2.746 35.104 2.746zM801 512c123.71 0 224-100.29 224-224 0-123.712-100.29-224-224-224s-224 100.288-224 224l-1 32c0 247.424 200.576 448 448 448v-128c-85.474 0-165.834-33.286-226.274-93.726-11.636-11.636-22.254-24.016-31.832-37.020 11.44 1.8 23.16 2.746 35.106 2.746z" data-tags="quotes-left, ldquo" />
<glyph unicode="profile2" d="M576 253.388v52.78c70.498 39.728 128 138.772 128 237.832 0 159.058 0 288-192 288s-192-128.942-192-288c0-99.060 57.502-198.104 128-237.832v-52.78c-217.102-17.748-384-124.42-384-253.388h896c0 128.968-166.898 235.64-384 253.388z" data-tags="user, profile, avatar, person, member" />
<glyph unicode="plus" d="M992 576h-352v352c0 17.672-14.328 32-32 32h-192c-17.672 0-32-14.328-32-32v-352h-352c-17.672 0-32-14.328-32-32v-192c0-17.672 14.328-32 32-32h352v-352c0-17.672 14.328-32 32-32h192c17.672 0 32 14.328 32 32v352h352c17.672 0 32 14.328 32 32v192c0 17.672-14.328 32-32 32z" data-tags="plus, add, sum" />
<glyph unicode="play" d="M981.188 799.892c-143.632 20.65-302.332 32.108-469.186 32.108-166.86 0-325.556-11.458-469.194-32.108-27.53-107.726-42.808-226.75-42.808-351.892 0-125.14 15.278-244.166 42.808-351.89 143.638-20.652 302.336-32.11 469.194-32.11 166.854 0 325.552 11.458 469.186 32.11 27.532 107.724 42.812 226.75 42.812 351.89 0 125.142-15.28 244.166-42.812 351.892zM384.002 256v384l320-192-320-192z" data-tags="play, video, movie" />
<glyph unicode="phone" d="M704 320c-64-64-64-128-128-128s-128 64-192 128-128 128-128 192 64 64 128 128-128 256-192 256-192-192-192-192c0-128 131.5-387.5 256-512s384-256 512-256c0 0 192 128 192 192s-192 256-256 192z" data-tags="phone, telephone, contact, support, call" />
<glyph unicode="minus" d="M0 544v-192c0-17.672 14.328-32 32-32h960c17.672 0 32 14.328 32 32v192c0 17.672-14.328 32-32 32h-960c-17.672 0-32-14.328-32-32z" data-tags="minus, subtract, minimize, line" />
<glyph unicode="map-marker2" d="M512 960c-176.732 0-320-143.268-320-320 0-320 320-704 320-704s320 384 320 704c0 176.732-143.27 320-320 320zM512 444c-108.248 0-196 87.752-196 196s87.752 196 196 196 196-87.752 196-196-87.752-196-196-196zM388 640c0 68.483 55.517 124 124 124s124-55.517 124-124c0-68.483-55.517-124-124-124s-124 55.517-124 124z" data-tags="location, map-marker, pin" />
<glyph unicode="map-marker" d="M512 960c-176.732 0-320-143.268-320-320 0-320 320-704 320-704s320 384 320 704c0 176.732-143.27 320-320 320zM512 448c-106.040 0-192 85.96-192 192s85.96 192 192 192 192-85.96 192-192-85.96-192-192-192z" data-tags="location, map-marker, pin" />
<glyph unicode="mail5" d="M512 960c-282.77 0-512-229.23-512-512s229.23-512 512-512 512 229.23 512 512-229.23 512-512 512zM256 704h512c9.138 0 18.004-1.962 26.144-5.662l-282.144-329.168-282.144 329.17c8.14 3.696 17.006 5.66 26.144 5.66zM192 256v384c0 1.34 0.056 2.672 0.14 4l187.664-218.942-185.598-185.598c-1.444 5.336-2.206 10.886-2.206 16.54zM768 192h-512c-5.654 0-11.202 0.762-16.54 2.208l182.118 182.118 90.422-105.498 90.424 105.494 182.116-182.12c-5.34-1.44-10.886-2.202-16.54-2.202zM832 256c0-5.654-0.762-11.2-2.206-16.54l-185.6 185.598 187.666 218.942c0.084-1.328 0.14-2.66 0.14-4v-384z" data-tags="mail, contact, support, newsletter, letter, email, envelop, social" />
<glyph unicode="mail" d="M928 832h-832c-52.8 0-96-43.2-96-96v-640c0-52.8 43.2-96 96-96h832c52.8 0 96 43.2 96 96v640c0 52.8-43.2 96-96 96zM398.74 409.628l-270.74-210.892v501.642l270.74-290.75zM176.38 704h671.24l-335.62-252-335.62 252zM409.288 398.302l102.712-110.302 102.71 110.302 210.554-270.302h-626.528l210.552 270.302zM625.26 409.628l270.74 290.75v-501.642l-270.74 210.892z" data-tags="envelop, mail, email, contact, letter" />
<glyph unicode="location2" d="M512 960c-176.732 0-320-143.268-320-320 0-320 320-704 320-704s320 384 320 704c0 176.732-143.27 320-320 320zM512 444c-108.248 0-196 87.752-196 196s87.752 196 196 196 196-87.752 196-196-87.752-196-196-196zM388 640c0 68.483 55.517 124 124 124s124-55.517 124-124c0-68.483-55.517-124-124-124s-124 55.517-124 124z" data-tags="location, map-marker, pin" />
<glyph unicode="location" d="M512 960c-176.732 0-320-143.268-320-320 0-320 320-704 320-704s320 384 320 704c0 176.732-143.27 320-320 320zM512 448c-106.040 0-192 85.96-192 192s85.96 192 192 192 192-85.96 192-192-85.96-192-192-192z" data-tags="location, map-marker, pin" />
<glyph unicode="linkedin2" d="M384 576h177.106v-90.782h2.532c24.64 44.194 84.958 90.782 174.842 90.782 186.946 0 221.52-116.376 221.52-267.734v-308.266h-184.61v273.278c0 65.184-1.334 149.026-96.028 149.026-96.148 0-110.82-70.986-110.82-144.292v-278.012h-184.542v576zM64 576h192v-576h-192v576zM256 736c0-53.019-42.981-96-96-96s-96 42.981-96 96c0 53.019 42.981 96 96 96s96-42.981 96-96z" data-tags="linkedin, brand, social" />
<glyph unicode="linkedin" d="M852 960h-680c-94.6 0-172-77.4-172-172v-680c0-94.6 77.4-172 172-172h680c94.6 0 172 77.4 172 172v680c0 94.6-77.4 172-172 172zM384 128h-128v448h128v-448zM320 640c-35.346 0-64 28.654-64 64s28.654 64 64 64 64-28.654 64-64-28.654-64-64-64zM832 128h-128v256c0 35.346-28.654 64-64 64s-64-28.654-64-64v-256h-128v448h128v-79.472c26.398 36.264 66.752 79.472 112 79.472 79.53 0 144-71.634 144-160v-288z" data-tags="linkedin, brand, social" />
<glyph unicode="ldquo" d="M225 512c123.712 0 224-100.29 224-224 0-123.712-100.288-224-224-224s-224 100.288-224 224l-1 32c0 247.424 200.576 448 448 448v-128c-85.474 0-165.834-33.286-226.274-93.726-11.634-11.636-22.252-24.016-31.83-37.020 11.438 1.8 23.16 2.746 35.104 2.746zM801 512c123.71 0 224-100.29 224-224 0-123.712-100.29-224-224-224s-224 100.288-224 224l-1 32c0 247.424 200.576 448 448 448v-128c-85.474 0-165.834-33.286-226.274-93.726-11.636-11.636-22.254-24.016-31.832-37.020 11.44 1.8 23.16 2.746 35.106 2.746z" data-tags="quotes-left, ldquo" />
<glyph unicode="instagram" d="M854 960h-684c-93.5 0-170-76.5-170-170v-684c0-93.5 76.5-170 170-170h684c93.5 0 170 76.5 170 170v684c0 93.5-76.5 170-170 170zM327.8 512h368.4c6.988-20.058 10.8-41.59 10.8-64 0-107.524-87.476-195-195-195s-195 87.476-195 195c0 22.41 3.812 43.942 10.8 64zM896 511.95v-383.95c0-35.2-28.8-64-64-64h-640c-35.2 0-64 28.8-64 64v384h100.108c-4.642-20.602-7.108-42.016-7.108-64 0-160.458 130.542-291 291-291s291 130.542 291 291c0 21.984-2.464 43.398-7.108 64l100.108-0.050zM896 736c0-17.6-14.4-32-32-32h-64c-17.6 0-32 14.4-32 32v64c0 17.6 14.4 32 32 32h64c17.6 0 32-14.4 32-32v-64z" data-tags="instagram, brand, social" />
<glyph unicode="group" d="M768 189.388v52.78c70.498 39.728 128 138.772 128 237.832 0 159.058 0 288-192 288s-192-128.942-192-288c0-99.060 57.502-198.104 128-237.832v-52.78c-217.102-17.748-384-124.42-384-253.388h896c0 128.968-166.898 235.64-384 253.388zM327.196 164.672c55.31 36.15 124.080 63.636 199.788 80.414-15.054 17.784-28.708 37.622-40.492 59.020-30.414 55.234-46.492 116.058-46.492 175.894 0 86.042 0 167.31 30.6 233.762 29.706 64.504 83.128 104.496 159.222 119.488-16.914 76.48-61.94 126.75-181.822 126.75-192 0-192-128.942-192-288 0-99.060 57.502-198.104 128-237.832v-52.78c-217.102-17.748-384-124.42-384-253.388h279.006c14.518 12.91 30.596 25.172 48.19 36.672z" horiz-adv-x="1152" data-tags="users, group, team, members, community, collaborate" />
<glyph unicode="facebook3" d="M512 960c-282.77 0-512-229.23-512-512s229.23-512 512-512v384h-128v128h128v96c0 88.366 71.632 160 160 160h160v-128h-160c-17.674 0-32-14.328-32-32v-96h176l-32-128h-144v-367.87c220.828 56.838 384 257.3 384 495.87 0 282.77-229.23 512-512 512z" data-tags="facebook, brand, social" />
<glyph unicode="facebook2" d="M853.35 960h-682.702c-94.25 0-170.648-76.42-170.648-170.686v-682.63c0-94.266 76.398-170.684 170.648-170.684h341.352v448h-128v128h128v96c0 88.366 71.634 160 160 160h160v-128h-160c-17.674 0-32-14.328-32-32v-96h176l-32-128h-144v-448h213.35c94.25 0 170.65 76.418 170.65 170.684v682.63c0 94.266-76.4 170.686-170.65 170.686z" data-tags="facebook, brand, social" />
<glyph unicode="facebook" d="M672 768c-88.366 0-160-71.634-160-160v-96h-128v-128h128v-448h128v448h144l32 128h-176v96c0 17.672 14.326 32 32 32h160v128h-160z" data-tags="facebook, brand, social" />
<glyph unicode="envelop" d="M928 832h-832c-52.8 0-96-43.2-96-96v-640c0-52.8 43.2-96 96-96h832c52.8 0 96 43.2 96 96v640c0 52.8-43.2 96-96 96zM398.74 409.628l-270.74-210.892v501.642l270.74-290.75zM176.38 704h671.24l-335.62-252-335.62 252zM409.288 398.302l102.712-110.302 102.71 110.302 210.554-270.302h-626.528l210.552 270.302zM625.26 409.628l270.74 290.75v-501.642l-270.74 210.892z" data-tags="envelop, mail, email, contact, letter" />
<glyph unicode="cross" d="M1014.662 137.34c-0.004 0.004-0.008 0.008-0.012 0.010l-310.644 310.65 310.644 310.65c0.004 0.004 0.008 0.006 0.012 0.010 3.344 3.346 5.762 7.254 7.312 11.416 4.246 11.376 1.824 24.682-7.324 33.83l-146.746 146.746c-9.148 9.146-22.45 11.566-33.828 7.32-4.16-1.55-8.070-3.968-11.418-7.31 0-0.004-0.004-0.006-0.008-0.010l-310.648-310.652-310.648 310.65c-0.004 0.004-0.006 0.006-0.010 0.010-3.346 3.342-7.254 5.76-11.414 7.31-11.38 4.248-24.682 1.826-33.83-7.32l-146.748-146.748c-9.148-9.148-11.568-22.452-7.322-33.828 1.552-4.16 3.97-8.072 7.312-11.416 0.004-0.002 0.006-0.006 0.010-0.010l310.65-310.648-310.65-310.652c-0.002-0.004-0.006-0.006-0.008-0.010-3.342-3.346-5.76-7.254-7.314-11.414-4.248-11.376-1.826-24.682 7.322-33.83l146.748-146.746c9.15-9.148 22.452-11.568 33.83-7.322 4.16 1.552 8.070 3.97 11.416 7.312 0.002 0.004 0.006 0.006 0.010 0.010l310.648 310.65 310.648-310.65c0.004-0.002 0.008-0.006 0.012-0.008 3.348-3.344 7.254-5.762 11.414-7.314 11.378-4.246 24.684-1.826 33.828 7.322l146.746 146.748c9.148 9.148 11.57 22.454 7.324 33.83-1.552 4.16-3.97 8.068-7.314 11.414z" data-tags="cross, cancel, close, quit, remove" />
<glyph unicode="contact5" d="M512 960c-282.77 0-512-229.23-512-512s229.23-512 512-512 512 229.23 512 512-229.23 512-512 512zM256 704h512c9.138 0 18.004-1.962 26.144-5.662l-282.144-329.168-282.144 329.17c8.14 3.696 17.006 5.66 26.144 5.66zM192 256v384c0 1.34 0.056 2.672 0.14 4l187.664-218.942-185.598-185.598c-1.444 5.336-2.206 10.886-2.206 16.54zM768 192h-512c-5.654 0-11.202 0.762-16.54 2.208l182.118 182.118 90.422-105.498 90.424 105.494 182.116-182.12c-5.34-1.44-10.886-2.202-16.54-2.202zM832 256c0-5.654-0.762-11.2-2.206-16.54l-185.6 185.598 187.666 218.942c0.084-1.328 0.14-2.66 0.14-4v-384z" data-tags="mail, contact, support, newsletter, letter, email, envelop, social" />
<glyph unicode="checkmark" d="M864 832l-480-480-224 224-160-160 384-384 640 640z" data-tags="checkmark, tick, correct, accept, ok" />
<glyph unicode="cancel" d="M1014.662 137.34c-0.004 0.004-0.008 0.008-0.012 0.010l-310.644 310.65 310.644 310.65c0.004 0.004 0.008 0.006 0.012 0.010 3.344 3.346 5.762 7.254 7.312 11.416 4.246 11.376 1.824 24.682-7.324 33.83l-146.746 146.746c-9.148 9.146-22.45 11.566-33.828 7.32-4.16-1.55-8.070-3.968-11.418-7.31 0-0.004-0.004-0.006-0.008-0.010l-310.648-310.652-310.648 310.65c-0.004 0.004-0.006 0.006-0.010 0.010-3.346 3.342-7.254 5.76-11.414 7.31-11.38 4.248-24.682 1.826-33.83-7.32l-146.748-146.748c-9.148-9.148-11.568-22.452-7.322-33.828 1.552-4.16 3.97-8.072 7.312-11.416 0.004-0.002 0.006-0.006 0.010-0.010l310.65-310.648-310.65-310.652c-0.002-0.004-0.006-0.006-0.008-0.010-3.342-3.346-5.76-7.254-7.314-11.414-4.248-11.376-1.826-24.682 7.322-33.83l146.748-146.746c9.15-9.148 22.452-11.568 33.83-7.322 4.16 1.552 8.070 3.97 11.416 7.312 0.002 0.004 0.006 0.006 0.010 0.010l310.648 310.65 310.648-310.65c0.004-0.002 0.008-0.006 0.012-0.008 3.348-3.344 7.254-5.762 11.414-7.314 11.378-4.246 24.684-1.826 33.828 7.322l146.746 146.748c9.148 9.148 11.57 22.454 7.324 33.83-1.552 4.16-3.97 8.068-7.314 11.414z" data-tags="cross, cancel, close, quit, remove" />
<glyph unicode="brand8" d="M512 960c-282.77 0-512-229.23-512-512s229.23-512 512-512v384h-128v128h128v96c0 88.366 71.632 160 160 160h160v-128h-160c-17.674 0-32-14.328-32-32v-96h176l-32-128h-144v-367.87c220.828 56.838 384 257.3 384 495.87 0 282.77-229.23 512-512 512z" data-tags="facebook, brand, social" />
<glyph unicode="brand7" d="M853.35 960h-682.702c-94.25 0-170.648-76.42-170.648-170.686v-682.63c0-94.266 76.398-170.684 170.648-170.684h341.352v448h-128v128h128v96c0 88.366 71.634 160 160 160h160v-128h-160c-17.674 0-32-14.328-32-32v-96h176l-32-128h-144v-448h213.35c94.25 0 170.65 76.418 170.65 170.684v682.63c0 94.266-76.4 170.686-170.65 170.686z" data-tags="facebook, brand, social" />
<glyph unicode="brand64" d="M384 576h177.106v-90.782h2.532c24.64 44.194 84.958 90.782 174.842 90.782 186.946 0 221.52-116.376 221.52-267.734v-308.266h-184.61v273.278c0 65.184-1.334 149.026-96.028 149.026-96.148 0-110.82-70.986-110.82-144.292v-278.012h-184.542v576zM64 576h192v-576h-192v576zM256 736c0-53.019-42.981-96-96-96s-96 42.981-96 96c0 53.019 42.981 96 96 96s96-42.981 96-96z" data-tags="linkedin, brand, social" />
<glyph unicode="brand63" d="M852 960h-680c-94.6 0-172-77.4-172-172v-680c0-94.6 77.4-172 172-172h680c94.6 0 172 77.4 172 172v680c0 94.6-77.4 172-172 172zM384 128h-128v448h128v-448zM320 640c-35.346 0-64 28.654-64 64s28.654 64 64 64 64-28.654 64-64-28.654-64-64-64zM832 128h-128v256c0 35.346-28.654 64-64 64s-64-28.654-64-64v-256h-128v448h128v-79.472c26.398 36.264 66.752 79.472 112 79.472 79.53 0 144-71.634 144-160v-288z" data-tags="linkedin, brand, social" />
<glyph unicode="brand6" d="M672 768c-88.366 0-160-71.634-160-160v-96h-128v-128h128v-448h128v448h144l32 128h-176v96c0 17.672 14.326 32 32 32h160v128h-160z" data-tags="facebook, brand, social" />
<glyph unicode="brand16" d="M293.188 960l-69.188-137.234-69.188 137.234h-88.248l124.71-217.314 0.726 0.43v-167.116h64v167.116l0.726-0.43 124.71 217.314zM480 832c17.346 0 32-14.654 32-32v-128c0-17.346-14.654-32-32-32s-32 14.654-32 32v128c0 17.346 14.654 32 32 32zM480 896c-52.8 0-96-43.2-96-96v-128c0-52.8 43.2-96 96-96s96 43.2 96 96v128c0 52.8-43.2 96-96 96v0zM768 896v-251.968c-27.922-23.288-64-37.332-64 45.634v206.334h-64v-219.324h0.096c0.986-52.91 12.142-148.168 127.904-70.712v-29.964h64v320h-64zM864 256c-17.644 0-32-14.356-32-32v-32h64v32c0 17.644-14.356 32-32 32zM576 224v-168c21.666-21.666 64-24 64 8s0 118 0 150-32 42-64 10zM1018.766 378.46c-2.792 36.862-16.046 66.942-39.778 90.244-23.726 23.298-54.080 35.994-91.068 38.080-69.784 3.478-229.452 5.216-369.716 5.216-140.266 0-311.294-1.738-381.078-5.216-36.986-2.086-67.342-14.782-91.068-38.080-23.728-23.302-36.988-53.382-39.778-90.244-4.188-75.116-6.28-102.352-6.28-139.91 0-37.56 2.092-93.894 6.28-169.012 2.792-36.862 16.050-66.944 39.778-90.244 23.726-23.298 54.082-35.992 91.068-38.080 69.782-3.476 240.81-5.214 381.078-5.214 140.266 0 299.934 1.738 369.716 5.214 36.988 2.088 67.342 14.782 91.068 38.080 23.73 23.3 36.986 53.382 39.778 90.244 3.49 62.598 5.234 118.934 5.234 169.012 0 50.076-1.744 77.314-5.234 139.91zM192 0h-64v320h-64v64h192v-64h-64v-320zM448 0h-64v29.962c-121.666-68.294-126.918-2.198-127.904 50.712h-0.096v175.326h64v-176.334c0-38.666 36.078-34.924 64-11.634v187.968h64v-256zM704 64.914c0-66.892-68.504-86.402-128-34.39v-30.524h-64v384h64v-104c64 64 128 40 128-24s0-121.172 0-191.086zM960 192v-32h-128v-64c0-17.644 14.356-32 32-32s32 14.356 32 32v32h64v-32c0-52.934-43.066-96-96-96s-96 43.066-96 96v128c0 52.934 43.066 96 96 96s96-43.066 96-96v-32z" data-tags="youtube, brand, social" />
<glyph unicode="brand15" d="M832 832h-640c-105.6 0-192-86.4-192-192v-384c0-105.6 86.4-192 192-192h640c105.6 0 192 86.4 192 192v384c0 105.6-86.4 192-192 192zM960 256c0-33.978-13.374-66.062-37.654-90.346-24.284-24.28-56.366-37.654-90.346-37.654h-640c-33.978 0-66.062 13.374-90.344 37.654-24.282 24.284-37.656 56.368-37.656 90.346v384c0 33.978 13.374 66.062 37.656 90.344s56.366 37.656 90.344 37.656h640c33.978 0 66.062-13.374 90.346-37.656 24.282-24.282 37.654-56.366 37.654-90.344v-384zM384 192l320 256-320 256z" data-tags="youtube, brand, social" />
<glyph unicode="brand14" d="M832 832h-640c-105.6 0-192-86.4-192-192v-384c0-105.6 86.4-192 192-192h640c105.6 0 192 86.4 192 192v384c0 105.6-86.4 192-192 192zM384 192v512l320-256-320-256z" data-tags="youtube, brand, social" />
<glyph unicode="brand13" d="M512 960c-282.77 0-512-229.23-512-512s229.23-512 512-512 512 229.23 512 512-229.23 512-512 512zM766.478 578.52c0.252-5.632 0.38-11.296 0.38-16.988 0-173.51-132.070-373.588-373.584-373.588-74.15 0-143.168 21.738-201.276 58.996 10.272-1.218 20.724-1.84 31.322-1.84 61.518 0 118.134 20.992 163.072 56.21-57.458 1.054-105.948 39.020-122.658 91.184 8.018-1.532 16.244-2.36 24.704-2.36 11.976 0 23.578 1.61 34.592 4.61-60.064 12.066-105.326 65.132-105.326 128.75 0 0.554 0 1.104 0.012 1.652 17.7-9.834 37.948-15.742 59.47-16.424-35.232 23.546-58.414 63.736-58.414 109.292 0 24.064 6.476 46.62 17.78 66.010 64.76-79.44 161.51-131.712 270.634-137.19-2.238 9.612-3.4 19.632-3.4 29.924 0 72.512 58.792 131.298 131.304 131.298 37.766 0 71.892-15.944 95.842-41.462 29.908 5.886 58.008 16.814 83.38 31.862-9.804-30.662-30.624-56.394-57.732-72.644 26.56 3.174 51.866 10.232 75.412 20.674-17.594-26.328-39.854-49.454-65.514-67.966z" data-tags="twitter, brand, social" />
<glyph unicode="brand12" d="M853.342 960h-682.656c-93.874 0-170.686-76.81-170.686-170.69v-682.624c0-93.936 76.812-170.686 170.686-170.686h682.656c93.876 0 170.658 76.75 170.658 170.69v682.62c0 93.88-76.782 170.69-170.658 170.69zM766.478 578.52c0.252-5.632 0.38-11.296 0.38-16.988 0-173.51-132.070-373.588-373.584-373.588-74.15 0-143.168 21.738-201.276 58.996 10.272-1.218 20.724-1.84 31.322-1.84 61.518 0 118.134 20.992 163.072 56.21-57.458 1.054-105.948 39.020-122.658 91.184 8.018-1.532 16.244-2.36 24.704-2.36 11.976 0 23.578 1.61 34.592 4.61-60.064 12.066-105.326 65.132-105.326 128.75 0 0.554 0 1.104 0.012 1.652 17.7-9.834 37.948-15.742 59.47-16.424-35.232 23.546-58.414 63.736-58.414 109.292 0 24.064 6.476 46.62 17.78 66.010 64.76-79.44 161.51-131.712 270.634-137.19-2.238 9.612-3.4 19.632-3.4 29.924 0 72.512 58.792 131.298 131.304 131.298 37.766 0 71.892-15.944 95.842-41.462 29.908 5.886 58.008 16.814 83.38 31.862-9.804-30.662-30.624-56.394-57.732-72.644 26.56 3.174 51.866 10.232 75.412 20.674-17.594-26.328-39.854-49.454-65.514-67.966z" data-tags="twitter, brand, tweet, social" />
<glyph unicode="brand11" d="M1024 765.582c-37.676-16.708-78.164-28.002-120.66-33.080 43.372 26 76.686 67.17 92.372 116.23-40.596-24.078-85.556-41.56-133.41-50.98-38.32 40.83-92.922 66.34-153.346 66.34-116.022 0-210.088-94.058-210.088-210.078 0-16.466 1.858-32.5 5.44-47.878-174.6 8.764-329.402 92.4-433.018 219.506-18.084-31.028-28.446-67.116-28.446-105.618 0-72.888 37.088-137.192 93.46-174.866-34.438 1.092-66.832 10.542-95.154 26.278-0.020-0.876-0.020-1.756-0.020-2.642 0-101.788 72.418-186.696 168.522-206-17.626-4.8-36.188-7.372-55.348-7.372-13.538 0-26.698 1.32-39.528 3.772 26.736-83.46 104.32-144.206 196.252-145.896-71.9-56.35-162.486-89.934-260.916-89.934-16.958 0-33.68 0.994-50.116 2.94 92.972-59.61 203.402-94.394 322.042-94.394 386.422 0 597.736 320.124 597.736 597.744 0 9.108-0.206 18.168-0.61 27.18 41.056 29.62 76.672 66.62 104.836 108.748z" data-tags="twitter, brand, tweet, social" />
<glyph unicode="brand10" d="M854 960h-684c-93.5 0-170-76.5-170-170v-684c0-93.5 76.5-170 170-170h684c93.5 0 170 76.5 170 170v684c0 93.5-76.5 170-170 170zM327.8 512h368.4c6.988-20.058 10.8-41.59 10.8-64 0-107.524-87.476-195-195-195s-195 87.476-195 195c0 22.41 3.812 43.942 10.8 64zM896 511.95v-383.95c0-35.2-28.8-64-64-64h-640c-35.2 0-64 28.8-64 64v384h100.108c-4.642-20.602-7.108-42.016-7.108-64 0-160.458 130.542-291 291-291s291 130.542 291 291c0 21.984-2.464 43.398-7.108 64l100.108-0.050zM896 736c0-17.6-14.4-32-32-32h-64c-17.6 0-32 14.4-32 32v64c0 17.6 14.4 32 32 32h64c17.6 0 32-14.4 32-32v-64z" data-tags="instagram, brand, social" />
<glyph unicode="add" d="M992 576h-352v352c0 17.672-14.328 32-32 32h-192c-17.672 0-32-14.328-32-32v-352h-352c-17.672 0-32-14.328-32-32v-192c0-17.672 14.328-32 32-32h352v-352c0-17.672 14.328-32 32-32h192c17.672 0 32 14.328 32 32v352h352c17.672 0 32 14.328 32 32v192c0 17.672-14.328 32-32 32z" data-tags="plus, add, sum" />
</font>
</defs>
</svg>
